<svg width="128" height="128" viewBox="0 0 128 128" fill="none" xmlns="http://www.w3.org/2000/svg">
<rect width="128" height="128" fill="#FFD600"/>
<path d="M96.2378 41H104.446V34.76H108.382V27.656H104.446V6.44H95.2778L80.1098 28.136V34.76H96.2378V41ZM88.7498 27.656L96.8138 15.464V27.656H88.7498ZM80.5038 63C80.5038 73.368 84.0078 80.856 93.9918 80.856C103.976 80.856 107.48 73.368 107.48 63C107.48 52.728 103.976 45.24 93.9918 45.24C84.0078 45.24 80.5038 52.728 80.5038 63ZM99.4158 63C99.4158 68.568 98.8398 73.176 93.9918 73.176C89.1438 73.176 88.5678 68.568 88.5678 63C88.5678 57.624 89.1438 52.92 93.9918 52.92C98.8398 52.92 99.4158 57.624 99.4158 63ZM96.2378 121H104.446V114.76H108.382V107.656H104.446V86.44H95.2778L80.1098 108.136V114.76H96.2378V121ZM88.7498 107.656L96.8138 95.464V107.656H88.7498Z" fill="#F95B5B"/>
<path d="M8.40733 70.398C8.40733 88.634 20.3453 97.658 35.6673 97.658C50.8953 97.658 63.6793 88.634 63.6793 70.398V31.012H47.6053V70.492C47.6053 78.294 43.5633 82.806 35.9493 82.806C28.3353 82.806 24.4813 78.294 24.4813 70.492V31.012H8.40733V70.398Z" fill="#363636"/>
<path d="M63.6793 31.012H64.6793V30.012H63.6793V31.012ZM47.6053 31.012V30.012H46.6053V31.012H47.6053ZM24.4813 31.012H25.4813V30.012H24.4813V31.012ZM8.40733 31.012V30.012H7.40733V31.012H8.40733ZM7.40733 70.398C7.40733 79.745 10.4743 86.8443 15.6123 91.6004C20.7375 96.3446 27.8159 98.658 35.6673 98.658V96.658C28.1968 96.658 21.6452 94.4594 16.9709 90.1326C12.3094 85.8177 9.40733 79.287 9.40733 70.398H7.40733ZM35.6673 98.658C43.4711 98.658 50.7283 96.3454 56.0484 91.6137C61.386 86.8664 64.6793 79.7666 64.6793 70.398H62.6793C62.6793 79.2654 59.5806 85.7956 54.7193 90.1193C49.8403 94.4586 43.0916 96.658 35.6673 96.658V98.658ZM64.6793 70.398V31.012H62.6793V70.398H64.6793ZM63.6793 30.012H47.6053V32.012H63.6793V30.012ZM46.6053 31.012V70.492H48.6053V31.012H46.6053ZM46.6053 70.492C46.6053 74.2303 45.6377 77.0315 43.9014 78.8926C42.1754 80.7426 39.5567 81.806 35.9493 81.806V83.806C39.956 83.806 43.1652 82.6134 45.3638 80.2569C47.552 77.9115 48.6053 74.5557 48.6053 70.492H46.6053ZM35.9493 81.806C32.3428 81.806 29.7768 80.7434 28.0995 78.9015C26.4078 77.0438 25.4813 74.2418 25.4813 70.492H23.4813C23.4813 74.5442 24.4818 77.8992 26.6207 80.248C28.7739 82.6126 31.9419 83.806 35.9493 83.806V81.806ZM25.4813 70.492V31.012H23.4813V70.492H25.4813ZM24.4813 30.012H8.40733V32.012H24.4813V30.012ZM7.40733 31.012V70.398H9.40733V31.012H7.40733Z" fill="#f95b5b"/>
</svg>
