<svg width="16" height="16" viewBox="0 0 16 16" fill="none" xmlns="http://www.w3.org/2000/svg">
<path fill-rule="evenodd" clip-rule="evenodd" d="M6.66672 1.33334C6.66685 1.19431 6.6235 1.05871 6.54275 0.945532C6.46199 0.832354 6.34788 0.747255 6.21636 0.702144C6.08485 0.657033 5.94252 0.654168 5.8093 0.693949C5.67608 0.733731 5.55863 0.814169 5.47339 0.924006L0.806722 6.92401C0.715686 7.04103 0.66626 7.18507 0.66626 7.33334C0.66626 7.48161 0.715686 7.62564 0.806722 7.74267L5.47339 13.7427C5.55863 13.8525 5.67608 13.9329 5.8093 13.9727C5.94252 14.0125 6.08485 14.0096 6.21636 13.9645C6.34788 13.9194 6.46199 13.8343 6.54275 13.7211C6.6235 13.608 6.66685 13.4724 6.66672 13.3333V10.6733C10.2527 10.748 11.9754 11.4287 12.8407 12.1687C13.6634 12.872 13.8141 13.6993 13.9707 14.566L14.0114 14.7893C14.0413 14.9491 14.1286 15.0925 14.2568 15.1925C14.385 15.2924 14.5454 15.3421 14.7077 15.3321C14.8699 15.3221 15.023 15.2531 15.1379 15.1382C15.2529 15.0233 15.322 14.8703 15.3321 14.708C15.4461 12.876 15.2747 10.2213 13.9807 8.00067C12.7247 5.84534 10.4627 4.18801 6.66672 4.01467V1.33334Z" fill="#F3BE00"/>
</svg>
