<svg width="300" height="196" viewBox="0 0 300 196" fill="none" xmlns="http://www.w3.org/2000/svg">
<path d="M121.165 16.5038L114.869 11.8897L94.9587 0L14.8112 7.04553L0.0661482 15.9069L0 39.3381L2.0987 40.5942V40.6191L4.1974 41.8565V41.8814L6.2961 43.1127V43.1376L8.43089 44.3688L16.4168 49.1384L16.3566 71.4005L35.6238 82.9047L41.9199 85.4107L59.7498 75.0134L64.9695 78.1289L71.2656 80.7717L85.4815 72.4825L85.5115 59.9896L121.105 39.2386L121.165 16.5038Z" fill="black" fill-opacity="0.46"/>
<path d="M193.64 113.811L178.895 122.672L178.829 146.103L180.927 147.359V147.384L183.026 148.622V148.653L185.125 149.878V149.903L187.259 151.14L195.245 155.903L195.185 178.166L214.458 189.67L220.755 192.176L238.584 181.778L243.798 184.894L250.094 187.537L264.31 179.248L264.346 166.755L299.934 146.004L300 123.269L293.704 118.655L273.787 106.765L193.64 113.811Z" fill="black" fill-opacity="0.46"/>
<path d="M182.31 117.79L182.617 117.604L184.481 116.447L185.197 115.981C185.654 115.688 186.105 115.396 186.544 115.104L187.319 114.582C187.722 114.314 188.113 114.041 188.522 113.773L189.286 113.232C189.659 112.971 190.025 112.704 190.386 112.442L191.102 111.914L192.154 111.112L192.804 110.608L193.874 109.737L194.385 109.315C194.896 108.885 195.389 108.463 195.859 108.034L196.46 107.517C196.682 107.312 196.887 107.107 197.097 106.896L197.392 106.61C197.801 106.212 198.186 105.814 198.553 105.416C198.637 105.329 198.715 105.235 198.793 105.148C199.076 104.831 199.352 104.526 199.611 104.203C199.713 104.085 199.815 103.96 199.912 103.836L200.164 103.531C200.375 103.264 200.573 103.003 200.766 102.735L200.85 102.617C201.144 102.207 201.421 101.796 201.674 101.374C201.818 101.137 201.962 100.901 202.095 100.665C202.155 100.559 202.203 100.447 202.263 100.341C202.323 100.236 202.449 99.9868 202.534 99.8065C202.618 99.6262 202.762 99.3277 202.87 99.0914C202.979 98.8551 203.021 98.7432 203.087 98.569C203.153 98.3949 203.159 98.4011 203.189 98.3203C203.297 98.0405 203.387 97.7669 203.478 97.487C203.594 97.1015 203.69 96.7159 203.766 96.3304C203.766 96.2869 203.796 96.2371 203.808 96.1874C203.82 96.1376 203.808 96.0443 203.838 95.9697C203.874 95.7894 203.899 95.609 203.923 95.4349C203.947 95.2608 203.959 95.1675 203.971 95.0307C203.983 94.8939 204.001 94.6701 204.013 94.4897C204.025 94.3094 204.013 94.3218 204.013 94.2348C204.013 94.1477 204.013 94.042 204.013 93.9425L204.073 71.2078C204.073 71.3881 204.073 71.5684 204.073 71.755V71.9415C204.225 69.3501 203.535 66.7806 202.113 64.641C200.068 61.3826 196.183 58.093 190.458 54.7723C189.568 54.2624 188.654 53.7836 187.782 53.3172C187.085 52.9192 186.387 52.5337 185.684 52.1668C184.98 51.7999 184.289 51.377 183.585 51.0039C178.58 48.0529 173.182 45.8781 167.565 44.5492C161.843 43.2417 155.955 42.8932 150.126 43.5169C143.901 44.187 137.786 45.6813 131.929 47.9631C125.159 50.6492 118.62 53.9192 112.38 57.7385C105.588 61.8179 100.206 65.7127 96.2334 69.4231C92.2605 73.1334 89.7549 76.7484 88.7165 80.2681C88.3583 81.4763 88.1878 82.7357 88.2114 83.9992C88.2114 83.9183 88.2114 83.8313 88.2114 83.7442L88.1453 107.182C88.1778 109.663 88.923 112.079 90.2861 114.121C92.4108 117.488 96.2675 120.829 101.856 124.146C102.566 124.568 103.275 124.979 103.985 125.389L104.682 125.756C105.157 126.011 105.638 126.266 106.12 126.509C106.396 126.652 106.679 126.776 106.961 126.913C107.388 127.124 107.821 127.336 108.248 127.535C108.555 127.678 108.85 127.802 109.162 127.933C109.571 128.107 109.974 128.293 110.365 128.455L110.449 128.492C110.594 128.555 110.738 128.598 110.882 128.66C111.484 128.903 112.085 129.139 112.722 129.357L113.54 129.637L115.098 130.14L115.531 130.277L116.246 130.476L116.817 130.631C117.449 130.799 118.086 130.961 118.718 131.104L119.247 131.216C119.698 131.316 120.143 131.403 120.594 131.483L120.877 131.539C121.45 131.643 122.021 131.736 122.59 131.819H122.693L122.975 131.869C123.545 131.977 124.116 132.07 124.689 132.149H124.791L125.074 132.205L126.788 132.485C126.822 132.482 126.856 132.482 126.89 132.485L127.173 132.534C127.774 132.64 128.327 132.733 128.911 132.814H129.115L129.59 132.876C130.083 132.939 130.576 132.995 131.075 133.044L131.641 133.1L132.044 133.138C132.501 133.181 132.964 133.206 133.421 133.237H133.559C134.088 133.268 134.617 133.287 135.147 133.299H137.498H138.099H138.43C138.827 133.299 139.224 133.262 139.633 133.237H140.162C140.811 133.194 141.461 133.144 142.11 133.075H142.26C143.026 132.997 143.796 132.903 144.57 132.796L145.345 132.671C145.863 132.59 146.38 132.516 146.897 132.422L147.089 132.391L147.943 132.223L149.146 131.981L150.216 131.732C150.619 131.639 151.028 131.552 151.419 131.446L152.501 131.166L153.704 130.837L154.805 130.513L156.007 130.134L156.344 130.035L157.426 129.668L158.124 129.438C158.846 129.183 159.573 128.928 160.295 128.648C167.088 126.051 173.662 122.881 179.953 119.171C180.755 118.698 181.54 118.23 182.31 117.765V117.79ZM204.013 72.2649C204.013 72.3955 203.983 72.5323 203.965 72.6629C203.947 72.7935 203.911 73.0236 203.881 73.2039C203.881 73.2039 203.881 73.2412 203.881 73.2599C203.946 72.929 203.994 72.5948 204.025 72.2587L204.013 72.2649ZM203.82 73.5646C203.742 73.9552 203.644 74.3413 203.526 74.7212C203.644 74.3413 203.742 73.9552 203.82 73.5646ZM89.4081 88.9677C89.3419 88.8309 89.2938 88.6941 89.2397 88.5573C89.3359 88.7936 89.4382 89.0299 89.5584 89.26C89.5043 89.1605 89.4502 89.0672 89.4081 88.9677Z" fill="black" fill-opacity="0.46"/>
<path d="M76.1365 12.0825L76.0704 35.5137L29.051 39.6552L29.1172 16.224L76.1365 12.0825Z" fill="#B8B8B8"/>
<path d="M35.0345 36.7823L34.9683 60.2135L0 39.3381L0.0661482 15.9069L35.0345 36.7823Z" fill="#868686"/>
<path d="M114.869 11.8897L114.809 35.3209L68.4514 63.1797L68.5176 39.7423L114.869 11.8897Z" fill="#BFBFBC"/>
<path d="M65.0298 54.6915L64.9696 78.1289L54.2356 71.7177L54.3017 48.2865L65.0298 54.6915Z" fill="#868686"/>
<path d="M79.2456 46.1535L79.1854 69.5847L64.9695 78.1289L65.0296 54.6915L79.2456 46.1535Z" fill="#BFBFBC"/>
<path d="M35.69 59.4735L35.6238 82.9047L16.3567 71.4005L16.4168 47.9693L35.69 59.4735Z" fill="#868686"/>
<path d="M54.3016 48.2865L54.2355 71.7177L35.6238 82.9047L35.6899 59.4735L54.3016 48.2865Z" fill="#BFBFBC"/>
<path d="M68.5175 39.7485L79.2455 46.1535L65.0357 54.6977L54.3017 48.2802L35.69 59.4735L16.4469 47.9693L35.0886 36.7761L0.0661621 15.9069L14.8112 7.04553L94.9407 0L114.857 11.8897L68.5175 39.7485ZM49.2744 28.2443L76.1606 12.0763L29.1413 16.2178L49.2383 28.2443" fill="#DADADA"/>
<path d="M169.538 60.0953C169.255 59.9275 168.967 59.772 168.678 59.6227L168.413 59.4984C168.197 59.3927 167.98 59.2932 167.758 59.1999L167.596 59.1253L167.499 59.0942C167.108 58.9387 166.706 58.7957 166.297 58.6713L166.206 58.6402L166.038 58.5967C165.779 58.5221 165.515 58.4537 165.244 58.3977L165.076 58.3542H164.992C164.687 58.292 164.374 58.236 164.054 58.1863C163.741 58.1365 163.452 58.1054 163.097 58.0743H163.031H162.797L162.093 58.0308H160.608C160.187 58.0308 159.76 58.0619 159.327 58.1241H159.243L158.894 58.1676L158.365 58.2298L157.89 58.3044L157.349 58.3915L157.198 58.4226H157.03C156.513 58.5221 155.996 58.634 155.46 58.7708C155.082 58.8641 154.685 58.9698 154.258 59.088L153.867 59.2123L153.013 59.4735L152.832 59.5357L152.634 59.6041C152.033 59.8031 151.431 60.0145 150.8 60.257L150.68 60.3068C150.078 60.5431 149.423 60.8043 148.767 61.0779L148.467 61.2022C147.805 61.4883 147.12 61.8241 146.422 62.1101L146.007 62.3029C145.298 62.6325 144.576 62.9807 143.83 63.3476L143.524 63.5031C142.79 63.8679 142.038 64.2534 141.269 64.6597L141.034 64.7779C140.24 65.2007 139.416 65.6484 138.581 66.1086L138.099 66.376C137.274 66.8279 136.43 67.3046 135.568 67.8063L135.111 68.0737C134.197 68.6022 133.277 69.1432 132.327 69.7153L130.643 70.7414L130.12 71.0647L129.2 71.6368L129.067 71.7177C128.436 72.1157 127.816 72.5074 127.221 72.893L126.878 73.1168L125.477 74.0372L124.936 74.4041L123.805 75.1876L123.306 75.5358C122.861 75.8405 122.44 76.1577 122.025 76.4499L121.827 76.593C121.358 76.935 120.913 77.2708 120.48 77.6003L120.119 77.8864L119.229 78.5891L118.838 78.9124L118.039 79.5903L117.738 79.8514C117.401 80.1499 117.076 80.4733 116.77 80.7345C116.541 80.9583 116.325 81.1698 116.114 81.3874L115.952 81.5553L115.501 82.0403L115.302 82.2704L114.954 82.6808L114.773 82.9109L114.653 83.0602C114.549 83.1928 114.452 83.3234 114.364 83.4519C114.25 83.6136 114.148 83.7691 114.046 83.9308L113.943 84.1049L113.775 84.3971C113.691 84.5588 113.607 84.7205 113.534 84.8822L113.474 85.019C113.426 85.1371 113.378 85.2491 113.336 85.361V85.4108C113.246 85.6663 113.174 85.9281 113.12 86.1943C113.076 86.4177 113.05 86.6444 113.041 86.8721C113.041 86.8721 113.041 86.9156 113.041 86.9343C113.038 86.9715 113.038 87.009 113.041 87.0462L112.981 110.477C112.981 110.421 112.981 110.359 112.981 110.303C112.993 110.076 113.019 109.849 113.059 109.625V109.625C113.112 109.356 113.186 109.092 113.282 108.836C113.28 108.809 113.28 108.782 113.282 108.755L113.42 108.419C113.42 108.376 113.456 108.326 113.48 108.276C113.552 108.114 113.637 107.953 113.727 107.791C113.817 107.629 113.847 107.573 113.913 107.468C113.979 107.362 113.967 107.368 114.003 107.318C114.1 107.163 114.208 107.001 114.316 106.84C114.424 106.678 114.581 106.479 114.725 106.299C114.785 106.218 114.845 106.143 114.912 106.069C114.978 105.994 115.134 105.795 115.254 105.658L115.453 105.428L115.91 104.943L116.066 104.775C116.283 104.551 116.511 104.327 116.752 104.103C117.052 103.811 117.353 103.519 117.72 103.214L118.02 102.953C118.273 102.729 118.538 102.505 118.82 102.275L119.205 101.958C119.494 101.722 119.806 101.485 120.095 101.249L120.456 100.969C120.889 100.634 121.334 100.298 121.803 99.9558L122.001 99.8936C122.41 99.5951 122.831 99.2717 123.27 98.9857L123.769 98.6374L124.9 97.8601L125.441 97.4995L126.848 96.5729L127.185 96.349C127.786 95.9635 128.388 95.5717 129.037 95.1738L130.065 94.5519L130.613 94.2099L132.296 93.1901C133.239 92.6263 134.165 92.0811 135.075 91.5546L135.532 91.281C136.398 90.7835 137.24 90.3047 138.069 89.8507L138.55 89.5833C139.386 89.1232 140.204 88.6754 141.004 88.2526L141.245 88.0785C142.014 87.6639 142.766 87.2784 143.5 86.9218L143.806 86.7664C144.552 86.4016 145.28 86.0533 145.989 85.7217L146.398 85.5289C147.102 85.2118 147.781 84.9071 148.443 84.621L148.743 84.4966C149.399 84.223 150.042 83.9618 150.656 83.7255L150.782 83.6758C151.413 83.4395 152.021 83.2218 152.616 83.0539L152.989 82.9296C153.277 82.8301 153.56 82.743 153.843 82.6622L154.24 82.5378C154.643 82.4259 155.039 82.314 155.442 82.2207C155.971 82.0839 156.495 81.9782 157.006 81.8787L157.331 81.8165L157.866 81.7232L158.341 81.6486L158.87 81.5864L159.303 81.5366C159.742 81.4931 160.169 81.462 160.59 81.4434H161.69H162.039C162.28 81.4434 162.514 81.4558 162.743 81.4807H163.043C163.368 81.4807 163.687 81.5429 164.006 81.5926C164.318 81.6424 164.607 81.6983 164.938 81.7605L165.196 81.8227C165.461 81.8849 165.725 81.9471 165.984 82.0217L166.249 82.0963C166.657 82.2207 167.054 82.3637 167.451 82.5192L167.71 82.6249C167.926 82.7161 168.143 82.8156 168.359 82.9234C168.449 82.9669 168.54 83.0042 168.624 83.0539C168.921 83.1949 169.209 83.3504 169.49 83.5203C171.895 84.9589 173.098 86.5964 173.098 88.4329L173.158 65.0017C173.158 63.1611 171.955 61.5235 169.55 60.0891" fill="#A4A4A4"/>
<path d="M197.771 68.8323C197.771 69.0189 197.759 69.2054 197.735 69.392C197.735 69.5288 197.705 69.6656 197.687 69.8024C197.669 69.9392 197.633 70.1755 197.603 70.3621L197.531 70.729C197.452 71.1319 197.354 71.5304 197.236 71.9229C197.128 72.2898 196.989 72.6629 196.851 73.036C196.779 73.2163 196.707 73.3905 196.629 73.5708C196.55 73.7511 196.412 74.0683 196.298 74.3108L196.021 74.8642C195.6 75.6712 195.13 76.45 194.614 77.1962L194.53 77.3205C194.265 77.6936 193.977 78.073 193.682 78.4523L193.381 78.8316C193.117 79.155 192.846 79.4535 192.563 79.8017L192.323 80.0815C191.95 80.4919 191.565 80.9024 191.162 81.3252L190.868 81.6175C190.477 82.0093 190.08 82.3948 189.665 82.7866C189.25 83.1783 188.697 83.6634 188.192 84.1049L187.68 84.534C187.326 84.8324 186.971 85.1558 186.604 85.4356L185.961 85.9518L184.908 86.7788L184.187 87.326L183.086 88.1469L182.328 88.7003L181.126 89.5336L180.356 90.0684L179.003 90.9763C178.768 91.138 178.534 91.2934 178.287 91.4489C177.686 91.8469 177.055 92.2511 176.423 92.6491L176.123 92.8418C175.345 93.3269 174.543 93.8161 173.717 94.3094C167.463 98.1229 160.914 101.395 154.137 104.091C153.41 104.371 152.688 104.638 151.966 104.899L151.269 105.142L149.85 105.621L148.617 106.006L147.523 106.342L146.32 106.684C145.953 106.777 145.592 106.883 145.231 106.97C144.871 107.057 144.42 107.175 144.029 107.269C143.638 107.362 143.313 107.443 142.958 107.517C142.603 107.592 142.146 107.685 141.756 107.772L140.643 107.978L139.08 108.239L138.31 108.357C137.54 108.469 136.77 108.568 136.001 108.649C135.231 108.73 134.606 108.78 133.908 108.83H133.373C132.868 108.861 132.363 108.885 131.857 108.898H131.256C130.775 108.898 130.294 108.898 129.813 108.898H129.211C128.574 108.898 127.937 108.898 127.299 108.83H127.161C126.56 108.792 125.958 108.742 125.357 108.693L124.786 108.631C124.292 108.581 123.799 108.525 123.306 108.456L122.831 108.394C122.182 108.301 121.532 108.201 120.883 108.083L120.612 108.027C119.981 107.909 119.355 107.785 118.73 107.648C118.105 107.511 117.461 107.343 116.824 107.175L116.258 107.02L115.11 106.678C114.593 106.522 114.07 106.355 113.552 106.18L112.735 105.901C112.133 105.677 111.502 105.447 110.888 105.198C110.72 105.13 110.546 105.074 110.371 104.999C109.968 104.837 109.565 104.651 109.169 104.477L108.255 104.079C107.828 103.886 107.401 103.674 106.974 103.457L106.12 103.046C105.645 102.804 105.17 102.549 104.689 102.294L103.991 101.921C103.281 101.535 102.572 101.125 101.856 100.677C96.2717 97.3357 92.4151 93.984 90.2863 90.6218C89.9363 90.0746 89.6228 89.5032 89.3482 88.9118C88.5631 87.2853 88.1516 85.4936 88.1455 83.6758L88.0793 107.113C88.1119 109.595 88.857 112.01 90.2201 114.053C92.389 117.465 96.2677 120.829 101.856 124.146C102.566 124.568 103.275 124.979 103.985 125.389L104.683 125.756C105.158 126.011 105.639 126.266 106.12 126.509C106.396 126.652 106.679 126.776 106.962 126.913C107.389 127.124 107.822 127.336 108.249 127.535L109.163 127.933C109.571 128.107 109.974 128.293 110.365 128.455L110.449 128.492C110.594 128.555 110.738 128.598 110.882 128.654C111.484 128.903 112.085 129.139 112.723 129.357L113.54 129.637C114.064 129.811 114.581 129.979 115.098 130.134L115.531 130.277L116.246 130.476L116.818 130.631C117.449 130.799 118.087 130.961 118.718 131.104L119.247 131.216C119.698 131.316 120.143 131.403 120.594 131.483L120.877 131.539C121.478 131.645 122.031 131.738 122.615 131.825H122.819L123.294 131.888C123.787 131.956 124.28 132.012 124.78 132.068L125.345 132.124L125.748 132.161C126.205 132.205 126.668 132.23 127.125 132.261H127.263C127.792 132.292 128.321 132.317 128.851 132.329H129.765C130.24 132.329 130.721 132.329 131.202 132.329H131.803H132.134C132.531 132.329 132.928 132.292 133.337 132.267H133.866C134.515 132.223 135.165 132.167 135.814 132.105H135.965C136.728 132.024 137.498 131.925 138.268 131.819L139.05 131.689C139.567 131.608 140.078 131.527 140.601 131.434L140.793 131.403L141.647 131.228C142.056 131.141 142.459 131.067 142.85 130.974C143.241 130.88 143.56 130.812 143.92 130.725L145.123 130.432L146.206 130.14L147.408 129.798C147.775 129.692 148.142 129.574 148.503 129.462C148.864 129.35 149.327 129.214 149.705 129.077L150.042 128.971L151.125 128.598L151.822 128.356C152.544 128.094 153.265 127.827 153.993 127.547C160.771 124.851 167.322 121.579 173.579 117.765C174.381 117.28 175.166 116.797 175.936 116.317H175.966L176.273 116.124L178.137 114.93L178.853 114.451L180.2 113.549L180.975 113.008C181.378 112.729 181.769 112.455 182.178 112.175L182.948 111.622C183.321 111.348 183.688 111.074 184.042 110.801C184.289 110.62 184.529 110.44 184.764 110.254C185.125 109.98 185.467 109.706 185.816 109.426L186.466 108.91C186.833 108.612 187.181 108.289 187.536 108.015L188.047 107.58C188.558 107.138 189.052 106.697 189.521 106.261L190.092 105.727C190.314 105.515 190.519 105.304 190.729 105.105L191.024 104.812C191.433 104.402 191.818 103.992 192.185 103.569L192.425 103.289C192.708 102.966 192.984 102.667 193.243 102.319L193.544 101.939C193.628 101.834 193.718 101.728 193.796 101.622C194.007 101.349 194.199 101.081 194.398 100.808L194.482 100.683C194.776 100.26 195.053 99.8376 195.306 99.4396C195.45 99.1971 195.594 98.9546 195.726 98.7121C195.787 98.5939 195.835 98.4882 195.895 98.3763C195.955 98.2643 196.081 98.0094 196.165 97.829C196.25 97.6487 196.394 97.3316 196.496 97.0828C196.598 96.8341 196.653 96.7284 196.719 96.548C196.785 96.3677 196.791 96.3801 196.821 96.2931C196.929 96.007 197.019 95.721 197.104 95.4349C197.224 95.037 197.32 94.639 197.398 94.2472C197.413 94.1982 197.425 94.1484 197.434 94.098C197.434 94.0233 197.434 93.9487 197.47 93.8741C197.506 93.6876 197.531 93.501 197.555 93.3144C197.579 93.1279 197.591 93.0408 197.603 92.904C197.615 92.7672 197.633 92.5309 197.645 92.3444C197.645 92.2573 197.645 92.1702 197.645 92.0832C197.645 91.9961 197.645 91.8842 197.645 91.7785L197.705 68.3473C197.705 68.5338 197.705 68.7266 197.705 68.9131" fill="#828282"/>
<path d="M189.641 82.7741C185.632 86.4803 180.324 90.3213 173.717 94.2969C167.463 98.1105 160.914 101.382 154.137 104.079C148.312 106.402 142.219 107.934 136.013 108.637C130.262 109.258 124.453 108.93 118.802 107.667C112.859 106.276 107.163 103.937 101.916 100.733C96.3318 97.3917 92.4752 94.0399 90.3464 90.6778C88.2177 87.3157 87.6764 83.8458 88.7228 80.2681C89.7611 76.7443 92.2667 73.1293 96.2396 69.4231C100.213 65.7168 105.593 61.822 112.38 57.7385C118.619 53.9107 125.159 50.6323 131.93 47.9382C137.786 45.6564 143.902 44.1621 150.126 43.492C155.955 42.8683 161.843 43.2168 167.565 44.5243C173.386 45.9133 178.968 48.2093 184.121 51.3335C189.849 54.7537 193.736 58.1427 195.781 61.5007C196.766 63.0106 197.407 64.7318 197.656 66.5348C197.905 68.3379 197.755 70.1759 197.218 71.9104C196.171 75.4342 193.646 79.0513 189.641 82.7617V82.7741ZM130.709 93.2149C136.353 91.7764 144.021 88.1469 153.71 82.3264C163.472 76.4603 169.514 71.8607 171.835 68.5276C174.156 65.1945 173.39 62.3837 169.538 60.0953C165.737 57.8235 161.045 57.3841 155.46 58.777C149.876 60.17 142.173 63.8181 132.351 69.7215C122.729 75.5006 116.732 80.0857 114.358 83.4768C111.985 86.8679 112.701 89.6973 116.505 91.965C120.318 94.241 125.048 94.6555 130.697 93.2087" fill="#DADADA"/>
<path d="M254.965 118.847L254.899 142.279L207.885 146.426L207.952 122.995L254.965 118.847Z" fill="#B8B8B8"/>
<path d="M213.863 143.547L213.797 166.985L178.835 146.109L178.901 122.678L213.863 143.547Z" fill="#868686"/>
<path d="M293.704 118.655L293.638 142.092L247.28 169.945L247.346 146.513L293.704 118.655Z" fill="#BFBFBC"/>
<path d="M243.864 161.463L243.798 184.894L233.07 178.489L233.13 155.058L243.864 161.463Z" fill="#868686"/>
<path d="M258.08 152.919L258.014 176.35L243.798 184.894L243.864 161.463L258.08 152.919Z" fill="#BFBFBC"/>
<path d="M214.519 166.238L214.459 189.67L195.185 178.166L195.251 154.734L214.519 166.238Z" fill="#868686"/>
<path d="M233.13 155.058L233.07 178.489L214.452 189.67L214.519 166.238L233.13 155.058Z" fill="#BFBFBC"/>
<path d="M247.352 146.532L258.08 152.943L243.864 161.456L233.136 155.051L214.524 166.245L195.251 154.741L213.863 143.547L178.901 122.672L193.646 113.811L273.793 106.765L293.704 118.655L247.352 146.532ZM228.079 135.028L254.971 118.86L207.958 123.001L228.079 135.016" fill="#DADADA"/>
<path d="M220.79 141.477C222.066 143.823 223.613 146.001 225.397 147.962C225.896 148.584 229.727 147.048 228.921 146.619C228.115 146.19 225.613 142.577 224.356 140.171C223.303 137.288 222.408 134.346 221.674 131.359C220.887 128.412 220.207 124.077 219.63 122.031C219.053 119.985 217.874 119.227 216.695 118.922C215.318 118.593 214.428 118.984 214.675 120.707C215.12 123.741 217.405 135.501 220.79 141.452" fill="#773E12"/>
<path d="M218.596 187.574C219.798 188.575 221.53 187.661 221.602 187.754C222.999 189.091 224.462 190.351 225.986 191.529C226.726 192.151 227.88 192.934 227.676 194.097C227.297 196.162 224.068 195.528 222.865 194.893C221.663 194.259 220.67 193.214 219.528 192.474C218.71 191.952 217.91 191.685 217.778 190.609C217.706 189.987 218.343 187.543 218.56 187.568" fill="#2B2A30"/>
<path d="M217.832 190.173C217.988 191.193 218.782 191.473 219.594 191.995C220.754 192.742 221.777 193.817 222.985 194.452C224.194 195.086 226.888 195.621 227.676 194.141C227.249 196.137 224.068 195.509 222.901 194.881C221.735 194.253 220.706 193.202 219.564 192.462C218.746 191.939 217.946 191.666 217.82 190.596C217.803 190.454 217.803 190.31 217.82 190.167" fill="#BF914B"/>
<path d="M230.641 180.386C231.843 181.387 233.912 180.292 233.996 180.386C235.231 181.682 236.538 182.903 237.911 184.042C238.657 184.664 239.811 185.454 239.601 186.61C239.228 188.681 236.023 188.04 234.79 187.406C233.557 186.772 232.589 185.727 231.446 184.993C230.629 184.465 229.829 184.197 229.702 183.128C229.624 182.506 230.406 180.361 230.617 180.386" fill="#2B2A30"/>
<path d="M229.763 182.848C229.919 183.868 230.713 184.148 231.519 184.67C232.685 185.416 233.707 186.492 234.916 187.126C236.125 187.761 238.819 188.289 239.607 186.815C239.18 188.812 236.029 188.184 234.832 187.555C233.635 186.927 232.637 185.87 231.494 185.136C230.677 184.614 229.871 184.34 229.745 183.271C229.728 183.128 229.728 182.984 229.745 182.842" fill="#BF914B"/>
<path d="M202.929 148.467C201.6 156.974 205.268 160.145 210.019 161.955C213.423 163.255 218.312 165.257 218.312 165.257C218.312 165.257 218.245 167.122 218.209 171.314C218.173 175.001 218.642 188.47 218.642 188.47C218.642 188.47 220.615 189.528 222.281 188.427C222.281 188.427 224.199 178.11 224.602 173.459C225.155 167.147 226.093 163.018 225.804 161.644C225.528 160.45 218.859 157.055 216.742 155.239L230.717 160.083C230.439 161.65 230.302 163.241 230.308 164.834C230.441 169.846 230.705 180.685 230.705 180.685C230.705 180.685 232.624 182.115 234.259 180.685C234.259 180.685 237.777 159.225 237.35 156.383C236.941 153.691 224.626 148.181 222.461 146.284C222.076 145.969 221.631 145.743 221.155 145.62C220.679 145.496 220.184 145.479 219.701 145.569L202.929 148.467Z" fill="#282725"/>
<path d="M236.221 151.731L226.828 146.134C226.746 146.085 226.652 146.059 226.557 146.059C226.462 146.059 226.369 146.085 226.287 146.134L209.798 155.959L219.455 161.724L236.221 151.731Z" fill="#FAD037"/>
<path d="M219.041 159.666L218.325 160.088C218.265 160.126 218.271 160.188 218.325 160.225L219.011 160.636C219.046 160.654 219.085 160.664 219.125 160.664C219.165 160.664 219.204 160.654 219.239 160.636L219.955 160.213C220.015 160.176 220.003 160.113 219.955 160.076L219.275 159.666C219.24 159.647 219.201 159.637 219.161 159.637C219.121 159.637 219.082 159.647 219.047 159.666" fill="#AD6040"/>
<path d="M220.051 159.056L219.335 159.485C219.275 159.523 219.287 159.585 219.335 159.622L220.021 160.032C220.055 160.051 220.093 160.061 220.132 160.061C220.171 160.061 220.209 160.051 220.243 160.032L220.959 159.603C221.019 159.603 221.013 159.51 220.959 159.473L220.273 159.062C220.238 159.044 220.199 159.035 220.159 159.035C220.12 159.035 220.081 159.044 220.045 159.062" fill="#AD6040"/>
<path d="M221.079 158.447L220.363 158.876C220.303 158.876 220.309 158.969 220.363 159.013L221.049 159.417C221.084 159.435 221.124 159.444 221.163 159.444C221.203 159.444 221.242 159.435 221.277 159.417L221.993 158.988C222.053 158.95 222.041 158.894 221.993 158.851L221.314 158.447C221.278 158.427 221.239 158.417 221.199 158.417C221.159 158.417 221.12 158.427 221.085 158.447" fill="#AD6040"/>
<path d="M222.077 157.85L221.362 158.279C221.302 158.31 221.314 158.372 221.362 158.409L222.047 158.82C222.082 158.837 222.12 158.845 222.159 158.845C222.197 158.845 222.235 158.837 222.27 158.82L222.985 158.391C223.045 158.353 223.039 158.291 222.985 158.254L222.3 157.844C222.264 157.825 222.225 157.815 222.186 157.815C222.146 157.815 222.107 157.825 222.071 157.844" fill="#AD6040"/>
<path d="M223.094 157.247L222.378 157.669C222.318 157.707 222.324 157.769 222.378 157.806L223.064 158.217C223.099 158.235 223.138 158.245 223.178 158.245C223.218 158.245 223.257 158.235 223.292 158.217L224.008 157.794C224.068 157.756 224.056 157.694 224.008 157.657L223.328 157.247C223.293 157.228 223.254 157.218 223.214 157.218C223.174 157.218 223.135 157.228 223.1 157.247" fill="#AD6040"/>
<path d="M224.104 156.637L223.388 157.066C223.328 157.104 223.34 157.16 223.388 157.203L224.074 157.607C224.108 157.627 224.146 157.637 224.185 157.637C224.224 157.637 224.262 157.627 224.296 157.607L225.012 157.178C225.072 157.147 225.066 157.085 225.012 157.041L224.327 156.637C224.291 156.619 224.252 156.61 224.212 156.61C224.173 156.61 224.134 156.619 224.098 156.637" fill="#AD6040"/>
<path d="M225.12 156.034L224.405 156.463C224.345 156.463 224.351 156.556 224.405 156.6L225.09 157.004C225.126 157.022 225.165 157.032 225.204 157.032C225.244 157.032 225.283 157.022 225.319 157.004L226.034 156.575C226.094 156.538 226.082 156.482 226.034 156.438L225.355 156.034C225.32 156.014 225.28 156.004 225.241 156.004C225.201 156.004 225.161 156.014 225.126 156.034" fill="#AD6040"/>
<path d="M226.13 155.431L225.433 155.86C225.379 155.897 225.385 155.959 225.433 155.997L226.118 156.407C226.154 156.426 226.193 156.435 226.233 156.435C226.272 156.435 226.312 156.426 226.347 156.407L227.063 155.984C227.117 155.947 227.111 155.885 227.063 155.847L226.377 155.437C226.342 155.418 226.302 155.409 226.263 155.409C226.223 155.409 226.184 155.418 226.148 155.437" fill="#AD6040"/>
<path d="M227.147 154.821L226.431 155.25C226.371 155.288 226.377 155.35 226.431 155.387L227.117 155.798C227.152 155.816 227.191 155.826 227.231 155.826C227.271 155.826 227.31 155.816 227.345 155.798L228.061 155.369C228.121 155.338 228.109 155.275 228.061 155.238L227.381 154.828C227.346 154.809 227.307 154.8 227.267 154.8C227.227 154.8 227.188 154.809 227.153 154.828" fill="#AD6040"/>
<path d="M228.157 154.218L227.441 154.647C227.387 154.678 227.393 154.741 227.441 154.784L228.127 155.188C228.163 155.206 228.202 155.216 228.241 155.216C228.281 155.216 228.32 155.206 228.355 155.188L229.071 154.759C229.125 154.728 229.119 154.666 229.071 154.622L228.386 154.218C228.35 154.199 228.311 154.188 228.271 154.188C228.231 154.188 228.192 154.199 228.157 154.218" fill="#AD6040"/>
<path d="M229.173 153.615L228.458 154.038C228.398 154.075 228.404 154.137 228.458 154.175L229.143 154.585C229.179 154.602 229.218 154.611 229.257 154.611C229.297 154.611 229.336 154.602 229.372 154.585L230.087 154.156C230.147 154.119 230.135 154.056 230.087 154.019L229.408 153.609C229.372 153.59 229.333 153.58 229.294 153.58C229.254 153.58 229.215 153.59 229.179 153.609" fill="#AD6040"/>
<path d="M230.183 153.006L229.468 153.435C229.414 153.472 229.42 153.534 229.468 153.571L230.153 153.982C230.189 154 230.228 154.01 230.268 154.01C230.307 154.01 230.346 154 230.382 153.982L231.098 153.559C231.152 153.522 231.146 153.459 231.098 153.422L230.412 153.012C230.376 152.995 230.337 152.986 230.298 152.986C230.258 152.986 230.219 152.995 230.183 153.012" fill="#AD6040"/>
<path d="M231.2 152.402L230.484 152.831C230.424 152.869 230.43 152.925 230.484 152.968L231.17 153.372C231.205 153.392 231.244 153.402 231.284 153.402C231.324 153.402 231.363 153.392 231.398 153.372L232.114 152.943C232.174 152.912 232.162 152.85 232.114 152.807L231.434 152.402C231.399 152.384 231.36 152.375 231.32 152.375C231.281 152.375 231.241 152.384 231.206 152.402" fill="#AD6040"/>
<path d="M232.697 151.507L231.495 152.228C231.434 152.228 231.446 152.322 231.495 152.365L232.18 152.769C232.215 152.787 232.253 152.797 232.291 152.797C232.33 152.797 232.368 152.787 232.403 152.769L233.605 152.048C233.659 152.017 233.653 151.955 233.605 151.911L232.92 151.507C232.885 151.487 232.845 151.477 232.806 151.477C232.766 151.477 232.726 151.487 232.691 151.507" fill="#AD6040"/>
<path d="M219.558 158.179L218.842 158.608C218.788 158.64 218.794 158.702 218.842 158.745L219.528 159.149C219.563 159.168 219.602 159.177 219.642 159.177C219.681 159.177 219.721 159.168 219.756 159.149L220.472 158.72C220.526 158.683 220.52 158.627 220.472 158.584L219.786 158.179C219.751 158.16 219.712 158.15 219.672 158.15C219.632 158.15 219.593 158.16 219.558 158.179Z" fill="#AD6040"/>
<path d="M220.574 157.576L219.859 157.999C219.798 158.036 219.81 158.099 219.859 158.136L220.538 158.546C220.573 158.565 220.613 158.574 220.652 158.574C220.692 158.574 220.731 158.565 220.767 158.546L221.482 158.123C221.542 158.086 221.536 158.024 221.482 157.987L220.797 157.576C220.761 157.558 220.722 157.548 220.682 157.548C220.643 157.548 220.604 157.558 220.568 157.576" fill="#AD6040"/>
<path d="M221.59 156.967L220.875 157.396C220.815 157.396 220.821 157.489 220.875 157.533L221.554 157.937C221.589 157.956 221.629 157.967 221.668 157.967C221.708 157.967 221.748 157.956 221.783 157.937L222.498 157.508C222.558 157.477 222.552 157.414 222.498 157.371L221.825 156.979C221.789 156.961 221.75 156.952 221.711 156.952C221.671 156.952 221.632 156.961 221.596 156.979" fill="#AD6040"/>
<path d="M222.607 156.364L221.891 156.786C221.831 156.824 221.837 156.886 221.891 156.923L222.577 157.334C222.612 157.352 222.651 157.362 222.691 157.362C222.731 157.362 222.77 157.352 222.805 157.334L223.521 156.911C223.581 156.873 223.569 156.811 223.521 156.774L222.841 156.364C222.806 156.345 222.767 156.335 222.727 156.335C222.687 156.335 222.648 156.345 222.613 156.364" fill="#AD6040"/>
<path d="M223.629 155.76L222.913 156.189C222.853 156.221 222.865 156.283 222.913 156.326L223.593 156.73C223.628 156.749 223.667 156.758 223.707 156.758C223.747 156.758 223.786 156.749 223.821 156.73L224.537 156.301C224.597 156.264 224.591 156.208 224.537 156.165L223.851 155.76C223.816 155.741 223.777 155.731 223.737 155.731C223.697 155.731 223.658 155.741 223.623 155.76" fill="#AD6040"/>
<path d="M224.627 155.157L223.912 155.58C223.851 155.617 223.863 155.679 223.912 155.717L224.591 156.127C224.626 156.146 224.666 156.155 224.705 156.155C224.745 156.155 224.784 156.146 224.82 156.127L225.535 155.704C225.595 155.667 225.589 155.605 225.535 155.568L224.85 155.157C224.814 155.139 224.775 155.129 224.735 155.129C224.696 155.129 224.657 155.139 224.621 155.157" fill="#AD6040"/>
<path d="M225.643 154.548L224.928 154.977C224.868 155.008 224.874 155.07 224.928 155.114L225.613 155.518C225.649 155.536 225.688 155.545 225.728 155.545C225.767 155.545 225.806 155.536 225.842 155.518L226.557 155.089C226.618 155.089 226.606 154.995 226.557 154.952L225.878 154.548C225.843 154.528 225.804 154.518 225.764 154.518C225.724 154.518 225.685 154.528 225.649 154.548" fill="#AD6040"/>
<path d="M226.636 153.945L225.92 154.367C225.86 154.405 225.866 154.467 225.92 154.504L226.606 154.915C226.641 154.933 226.68 154.943 226.72 154.943C226.76 154.943 226.799 154.933 226.834 154.915L227.55 154.492C227.61 154.454 227.598 154.392 227.55 154.355L226.87 153.945C226.835 153.926 226.796 153.916 226.756 153.916C226.716 153.916 226.677 153.926 226.642 153.945" fill="#AD6040"/>
<path d="M227.67 153.335L226.954 153.764C226.9 153.802 226.906 153.858 226.954 153.901L227.64 154.305C227.675 154.325 227.714 154.335 227.754 154.335C227.794 154.335 227.833 154.325 227.868 154.305L228.584 153.876C228.638 153.845 228.632 153.783 228.584 153.739L227.898 153.372C227.863 153.354 227.824 153.345 227.784 153.345C227.745 153.345 227.706 153.354 227.67 153.372" fill="#AD6040"/>
<path d="M228.686 152.751L227.971 153.173C227.911 153.211 227.923 153.273 227.971 153.31L228.656 153.721C228.691 153.739 228.729 153.749 228.767 153.749C228.806 153.749 228.844 153.739 228.879 153.721L229.594 153.298C229.654 153.261 229.648 153.198 229.594 153.161L228.909 152.751C228.873 152.732 228.834 152.722 228.794 152.722C228.755 152.722 228.716 152.732 228.68 152.751" fill="#AD6040"/>
<path d="M229.703 152.129L228.987 152.558C228.927 152.595 228.933 152.651 228.987 152.695L229.666 153.105C229.702 153.124 229.741 153.133 229.781 153.133C229.82 153.133 229.86 153.124 229.895 153.105L230.611 152.676C230.671 152.645 230.665 152.583 230.611 152.539L229.931 152.135C229.896 152.117 229.856 152.107 229.817 152.107C229.777 152.107 229.738 152.117 229.703 152.135" fill="#AD6040"/>
<path d="M230.719 151.507L230.003 151.936C229.943 151.967 229.949 152.029 230.003 152.067L230.683 152.477C230.719 152.494 230.758 152.503 230.797 152.503C230.837 152.503 230.875 152.494 230.911 152.477L231.627 152.048C231.687 152.011 231.681 151.948 231.627 151.911L230.947 151.501C230.912 151.482 230.873 151.472 230.833 151.472C230.793 151.472 230.754 151.482 230.719 151.501" fill="#AD6040"/>
<path d="M218.548 158.789L217.345 159.504C217.291 159.541 217.297 159.603 217.345 159.641L218.031 160.051C218.066 160.07 218.105 160.079 218.145 160.079C218.184 160.079 218.224 160.07 218.259 160.051L219.462 159.336C219.516 159.299 219.51 159.236 219.462 159.199L218.776 158.789C218.742 158.77 218.704 158.761 218.665 158.761C218.626 158.761 218.588 158.77 218.554 158.789" fill="#AD6040"/>
<path d="M232.649 151.47L231.933 151.899C231.9 151.914 231.864 151.922 231.828 151.922C231.792 151.922 231.756 151.914 231.723 151.899L231.001 151.463C230.985 151.463 230.97 151.457 230.959 151.445C230.948 151.434 230.941 151.418 230.941 151.401C230.941 151.385 230.948 151.369 230.959 151.357C230.97 151.346 230.985 151.339 231.001 151.339L231.056 151.302C231.11 151.271 231.11 151.221 231.056 151.184L230.292 150.73C230.276 150.73 230.261 150.723 230.249 150.711C230.238 150.7 230.232 150.684 230.232 150.667C230.232 150.651 230.238 150.635 230.249 150.623C230.261 150.612 230.276 150.605 230.292 150.605L230.749 150.332C230.781 150.315 230.818 150.306 230.854 150.306C230.891 150.306 230.927 150.315 230.959 150.332L231.675 150.761L231.819 150.848L231.927 150.91L232.036 150.972L232.637 151.339C232.697 151.376 232.697 151.432 232.637 151.47" fill="#AD6040"/>
<path d="M215.114 157.315L214.398 157.744C214.338 157.775 214.35 157.837 214.398 157.881L215.078 158.285C215.113 158.303 215.153 158.313 215.192 158.313C215.232 158.313 215.271 158.303 215.306 158.285L216.022 157.856C216.082 157.819 216.076 157.763 216.022 157.719L215.336 157.315C215.301 157.295 215.262 157.285 215.222 157.285C215.182 157.285 215.143 157.295 215.108 157.315" fill="#AD6040"/>
<path d="M216.124 156.712L215.409 157.141C215.349 157.172 215.361 157.234 215.409 157.278L216.088 157.682C216.124 157.7 216.163 157.709 216.202 157.709C216.242 157.709 216.281 157.7 216.317 157.682L217.032 157.253C217.092 157.222 217.086 157.16 217.032 157.116L216.347 156.712C216.312 156.692 216.272 156.682 216.232 156.682C216.193 156.682 216.153 156.692 216.118 156.712" fill="#AD6040"/>
<path d="M217.134 156.109L216.419 156.538C216.359 156.569 216.371 156.631 216.419 156.674L217.104 157.079C217.139 157.097 217.177 157.106 217.215 157.106C217.254 157.106 217.292 157.097 217.327 157.079L218.042 156.65C218.102 156.619 218.096 156.556 218.042 156.513L217.357 156.109C217.322 156.089 217.282 156.079 217.242 156.079C217.203 156.079 217.163 156.089 217.128 156.109" fill="#AD6040"/>
<path d="M225.74 150.972L225.024 151.401C224.964 151.432 224.976 151.494 225.024 151.532L225.704 151.942C225.739 151.96 225.778 151.97 225.818 151.97C225.858 151.97 225.897 151.96 225.932 151.942L226.648 151.513C226.708 151.476 226.702 151.42 226.648 151.376L225.962 150.972C225.927 150.953 225.888 150.942 225.848 150.942C225.808 150.942 225.769 150.953 225.734 150.972" fill="#AD6040"/>
<path d="M226.75 150.369L226.034 150.798C225.974 150.829 225.986 150.891 226.034 150.929L226.714 151.339C226.749 151.357 226.789 151.367 226.828 151.367C226.868 151.367 226.907 151.357 226.942 151.339L227.658 150.91C227.718 150.873 227.712 150.81 227.658 150.773L226.972 150.363C226.937 150.344 226.898 150.334 226.858 150.334C226.819 150.334 226.779 150.344 226.744 150.363" fill="#AD6040"/>
<path d="M227.76 149.766L227.044 150.195C226.984 150.226 226.996 150.288 227.044 150.332L227.724 150.736C227.759 150.754 227.799 150.763 227.838 150.763C227.878 150.763 227.917 150.754 227.952 150.736L228.668 150.307C228.728 150.269 228.722 150.213 228.668 150.17L227.982 149.766C227.947 149.746 227.908 149.736 227.868 149.736C227.828 149.736 227.789 149.746 227.754 149.766" fill="#AD6040"/>
<path d="M228.77 149.163L228.055 149.592C227.994 149.623 228.007 149.685 228.055 149.722L228.734 150.133C228.77 150.151 228.809 150.16 228.848 150.16C228.888 150.16 228.927 150.151 228.963 150.133L229.678 149.704C229.738 149.666 229.732 149.604 229.678 149.567L228.993 149.163C228.958 149.143 228.918 149.133 228.879 149.133C228.839 149.133 228.799 149.143 228.764 149.163" fill="#AD6040"/>
<path d="M218.403 155.35L217.429 155.934C217.369 155.966 217.381 156.028 217.429 156.071L218.108 156.475C218.144 156.494 218.183 156.503 218.223 156.503C218.262 156.503 218.301 156.494 218.337 156.475L219.317 155.891C219.371 155.854 219.365 155.798 219.317 155.754L218.632 155.35C218.596 155.33 218.557 155.32 218.517 155.32C218.477 155.32 218.438 155.33 218.403 155.35" fill="#AD6040"/>
<path d="M224.729 151.575L223.755 152.16C223.695 152.191 223.701 152.253 223.755 152.297L224.441 152.701C224.476 152.719 224.515 152.728 224.555 152.728C224.595 152.728 224.634 152.719 224.669 152.701L225.643 152.116C225.704 152.079 225.698 152.023 225.643 151.98L224.958 151.575C224.923 151.556 224.884 151.545 224.844 151.545C224.804 151.545 224.765 151.556 224.729 151.575" fill="#AD6040"/>
<path d="M223.46 152.334L218.698 155.176C218.644 155.207 218.65 155.269 218.698 155.313L219.383 155.717C219.419 155.735 219.458 155.744 219.498 155.744C219.537 155.744 219.576 155.735 219.612 155.717L224.368 152.875C224.429 152.838 224.417 152.782 224.368 152.738L223.689 152.334C223.654 152.314 223.615 152.304 223.575 152.304C223.535 152.304 223.496 152.314 223.46 152.334" fill="#AD6040"/>
<path d="M218.854 157.427L218.139 157.856C218.078 157.893 218.084 157.949 218.139 157.993L218.818 158.397C218.853 158.417 218.892 158.427 218.932 158.427C218.972 158.427 219.012 158.417 219.047 158.397L219.762 157.968C219.822 157.937 219.816 157.875 219.762 157.831L219.083 157.427C219.047 157.409 219.008 157.399 218.968 157.399C218.929 157.399 218.89 157.409 218.854 157.427" fill="#AD6040"/>
<path d="M219.865 156.824L219.149 157.253C219.095 157.284 219.101 157.346 219.149 157.39L219.835 157.794C219.869 157.812 219.907 157.821 219.946 157.821C219.984 157.821 220.023 157.812 220.057 157.794L220.773 157.365C220.833 157.334 220.827 157.271 220.773 157.228L220.087 156.824C220.052 156.804 220.013 156.794 219.973 156.794C219.933 156.794 219.894 156.804 219.859 156.824" fill="#AD6040"/>
<path d="M220.875 156.221L220.165 156.65C220.105 156.681 220.111 156.743 220.165 156.786L220.851 157.191C220.886 157.209 220.925 157.218 220.965 157.218C221.005 157.218 221.044 157.209 221.079 157.191L221.795 156.762C221.849 156.724 221.843 156.668 221.795 156.625L221.109 156.221C221.074 156.201 221.035 156.191 220.995 156.191C220.955 156.191 220.916 156.201 220.881 156.221" fill="#AD6040"/>
<path d="M221.891 155.617L221.175 156.04C221.115 156.078 221.121 156.14 221.175 156.177L221.855 156.587C221.89 156.606 221.929 156.616 221.969 156.616C222.009 156.616 222.048 156.606 222.083 156.587L222.799 156.165C222.859 156.127 222.853 156.065 222.799 156.028L222.12 155.617C222.084 155.599 222.045 155.589 222.005 155.589C221.966 155.589 221.926 155.599 221.891 155.617" fill="#AD6040"/>
<path d="M222.901 155.014L222.186 155.437C222.126 155.474 222.138 155.537 222.186 155.574L222.865 155.984C222.901 156.003 222.94 156.012 222.98 156.012C223.019 156.012 223.058 156.003 223.094 155.984L223.809 155.561C223.869 155.524 223.863 155.462 223.809 155.425L223.124 155.014C223.088 154.996 223.049 154.986 223.01 154.986C222.97 154.986 222.931 154.996 222.895 155.014" fill="#AD6040"/>
<path d="M223.912 154.405L223.196 154.834C223.142 154.871 223.148 154.933 223.196 154.971L223.882 155.381C223.917 155.4 223.956 155.409 223.996 155.409C224.036 155.409 224.075 155.4 224.11 155.381L224.826 154.958C224.88 154.921 224.874 154.859 224.826 154.821L224.14 154.411C224.104 154.394 224.065 154.385 224.026 154.385C223.987 154.385 223.948 154.394 223.912 154.411" fill="#AD6040"/>
<path d="M224.928 153.802L224.212 154.231C224.152 154.268 224.158 154.324 224.212 154.367L224.892 154.772C224.927 154.791 224.966 154.801 225.006 154.801C225.046 154.801 225.085 154.791 225.12 154.772L225.836 154.343C225.896 154.311 225.89 154.249 225.836 154.206L225.156 153.802C225.121 153.783 225.082 153.774 225.042 153.774C225.002 153.774 224.963 153.783 224.928 153.802" fill="#AD6040"/>
<path d="M225.938 153.198L225.222 153.627C225.162 153.627 225.174 153.721 225.222 153.764L225.902 154.168C225.937 154.187 225.977 154.196 226.016 154.196C226.056 154.196 226.095 154.187 226.13 154.168L226.846 153.739C226.906 153.702 226.9 153.646 226.846 153.603L226.16 153.198C226.125 153.179 226.086 153.169 226.046 153.169C226.006 153.169 225.967 153.179 225.932 153.198" fill="#AD6040"/>
<path d="M226.948 152.595L226.233 153.024C226.179 153.055 226.185 153.118 226.233 153.155L226.918 153.565C226.954 153.583 226.993 153.593 227.033 153.593C227.072 153.593 227.111 153.583 227.147 153.565L227.862 153.136C227.917 153.099 227.911 153.043 227.862 152.999L227.177 152.589C227.141 152.57 227.102 152.561 227.063 152.561C227.023 152.561 226.984 152.57 226.948 152.589" fill="#AD6040"/>
<path d="M227.965 151.992L227.249 152.415C227.189 152.452 227.195 152.514 227.249 152.552L227.934 152.962C227.97 152.981 228.009 152.99 228.049 152.99C228.088 152.99 228.128 152.981 228.163 152.962L228.879 152.539C228.939 152.502 228.927 152.44 228.879 152.402L228.199 151.992C228.164 151.973 228.125 151.964 228.085 151.964C228.045 151.964 228.006 151.973 227.971 151.992" fill="#AD6040"/>
<path d="M228.975 151.383L228.259 151.812C228.199 151.849 228.211 151.911 228.259 151.948L228.939 152.359C228.974 152.377 229.014 152.387 229.053 152.387C229.093 152.387 229.132 152.377 229.167 152.359L229.883 151.936C229.943 151.899 229.937 151.837 229.883 151.799L229.198 151.389C229.162 151.372 229.123 151.363 229.083 151.363C229.044 151.363 229.005 151.372 228.969 151.389" fill="#AD6040"/>
<path d="M229.985 150.779L229.27 151.208C229.215 151.246 229.221 151.308 229.27 151.345L229.955 151.756C229.991 151.774 230.03 151.784 230.069 151.784C230.109 151.784 230.148 151.774 230.184 151.756L230.899 151.327C230.953 151.295 230.947 151.233 230.899 151.196L230.214 150.786C230.178 150.767 230.139 150.758 230.099 150.758C230.06 150.758 230.021 150.767 229.985 150.786" fill="#AD6040"/>
<path d="M217.844 158.036L216.359 158.919C216.305 158.95 216.311 159.013 216.359 159.056L217.044 159.46C217.08 159.478 217.119 159.488 217.158 159.488C217.198 159.488 217.237 159.478 217.273 159.46L218.752 158.577C218.806 158.54 218.8 158.478 218.752 158.441L218.073 158.03C218.037 158.012 217.998 158.002 217.958 158.002C217.919 158.002 217.879 158.012 217.844 158.03" fill="#AD6040"/>
<path d="M217.369 157.141L216.653 157.57C216.593 157.607 216.599 157.663 216.653 157.707L217.333 158.111C217.368 158.131 217.407 158.141 217.447 158.141C217.487 158.141 217.526 158.131 217.561 158.111L218.277 157.682C218.337 157.651 218.331 157.589 218.277 157.545L217.597 157.141C217.562 157.123 217.523 157.113 217.483 157.113C217.443 157.113 217.404 157.123 217.369 157.141" fill="#AD6040"/>
<path d="M218.379 156.538L217.664 156.967C217.609 156.998 217.616 157.06 217.664 157.104L218.349 157.508C218.385 157.526 218.424 157.535 218.463 157.535C218.503 157.535 218.542 157.526 218.578 157.508L219.287 157.079C219.347 157.041 219.341 156.985 219.287 156.942L218.602 156.538C218.567 156.518 218.527 156.508 218.487 156.508C218.448 156.508 218.408 156.518 218.373 156.538" fill="#AD6040"/>
<path d="M219.419 155.934L218.704 156.364C218.644 156.395 218.65 156.457 218.704 156.5L219.389 156.905C219.425 156.923 219.464 156.932 219.504 156.932C219.543 156.932 219.582 156.923 219.618 156.905L220.333 156.475C220.394 156.438 220.382 156.382 220.333 156.339L219.654 155.934C219.619 155.915 219.58 155.905 219.54 155.905C219.5 155.905 219.46 155.915 219.425 155.934" fill="#AD6040"/>
<path d="M220.406 155.331L219.69 155.754C219.63 155.791 219.636 155.854 219.69 155.891L220.37 156.301C220.405 156.32 220.444 156.33 220.484 156.33C220.524 156.33 220.563 156.32 220.598 156.301L221.314 155.879C221.374 155.841 221.368 155.779 221.314 155.742L220.634 155.331C220.599 155.313 220.56 155.303 220.52 155.303C220.48 155.303 220.441 155.313 220.406 155.331" fill="#AD6040"/>
<path d="M221.416 154.728L220.7 155.151C220.64 155.188 220.652 155.25 220.7 155.288L221.38 155.698C221.415 155.717 221.454 155.726 221.494 155.726C221.534 155.726 221.573 155.717 221.608 155.698L222.324 155.275C222.384 155.238 222.378 155.176 222.324 155.138L221.638 154.728C221.603 154.709 221.564 154.7 221.524 154.7C221.485 154.7 221.445 154.709 221.41 154.728" fill="#AD6040"/>
<path d="M222.426 154.119L221.711 154.548C221.657 154.585 221.663 154.647 221.711 154.685L222.396 155.095C222.432 155.114 222.471 155.123 222.511 155.123C222.55 155.123 222.589 155.114 222.625 155.095L223.34 154.672C223.395 154.635 223.389 154.573 223.34 154.535L222.655 154.125C222.619 154.108 222.58 154.099 222.541 154.099C222.501 154.099 222.462 154.108 222.426 154.125" fill="#AD6040"/>
<path d="M223.442 153.515L222.727 153.945C222.667 153.982 222.673 154.038 222.727 154.081L223.412 154.486C223.447 154.505 223.487 154.515 223.526 154.515C223.566 154.515 223.606 154.505 223.641 154.486L224.356 154.056C224.416 154.025 224.404 153.963 224.356 153.92L223.677 153.515C223.641 153.497 223.602 153.488 223.563 153.488C223.523 153.488 223.484 153.497 223.448 153.515" fill="#AD6040"/>
<path d="M224.453 152.912L223.737 153.341C223.677 153.372 223.689 153.435 223.737 153.478L224.417 153.882C224.452 153.901 224.491 153.91 224.531 153.91C224.571 153.91 224.61 153.901 224.645 153.882L225.361 153.453C225.421 153.416 225.415 153.36 225.361 153.317L224.675 152.912C224.64 152.893 224.601 152.882 224.561 152.882C224.521 152.882 224.482 152.893 224.447 152.912" fill="#AD6040"/>
<path d="M225.463 152.309L224.748 152.738C224.693 152.738 224.699 152.831 224.748 152.875L225.433 153.279C225.469 153.297 225.508 153.307 225.547 153.307C225.587 153.307 225.626 153.297 225.662 153.279L226.371 152.85C226.431 152.813 226.425 152.757 226.371 152.713L225.686 152.309C225.651 152.29 225.611 152.279 225.571 152.279C225.532 152.279 225.492 152.29 225.457 152.309" fill="#AD6040"/>
<path d="M226.479 151.706L225.764 152.129C225.704 152.166 225.71 152.228 225.764 152.266L226.449 152.676C226.485 152.693 226.524 152.702 226.564 152.702C226.603 152.702 226.642 152.693 226.678 152.676L227.393 152.247C227.454 152.21 227.442 152.147 227.393 152.11L226.714 151.7C226.679 151.681 226.639 151.671 226.6 151.671C226.56 151.671 226.521 151.681 226.485 151.7" fill="#AD6040"/>
<path d="M227.489 151.103L226.774 151.526C226.714 151.563 226.72 151.625 226.774 151.662L227.453 152.073C227.489 152.091 227.528 152.101 227.568 152.101C227.607 152.101 227.646 152.091 227.682 152.073L228.397 151.65C228.458 151.613 228.452 151.55 228.397 151.513L227.718 151.103C227.683 151.084 227.643 151.074 227.604 151.074C227.564 151.074 227.525 151.084 227.489 151.103" fill="#AD6040"/>
<path d="M229.751 149.747L227.784 150.922C227.724 150.96 227.736 151.022 227.784 151.059L228.464 151.47C228.499 151.488 228.538 151.498 228.578 151.498C228.618 151.498 228.657 151.488 228.692 151.47L230.665 150.294C230.719 150.263 230.713 150.201 230.665 150.158L229.979 149.753C229.943 149.735 229.904 149.726 229.865 149.726C229.825 149.726 229.786 149.735 229.751 149.753" fill="#AD6040"/>
<path d="M216.359 157.725L215.378 158.31C215.324 158.347 215.33 158.409 215.378 158.447L216.064 158.857C216.099 158.876 216.139 158.885 216.178 158.885C216.218 158.885 216.257 158.876 216.293 158.857L217.267 158.273C217.327 158.242 217.315 158.179 217.267 158.142L216.587 157.732C216.551 157.715 216.512 157.706 216.473 157.706C216.434 157.706 216.395 157.715 216.359 157.732" fill="#AD6040"/>
<path d="M233.72 152.129L219.347 160.71C219.287 160.741 219.293 160.804 219.347 160.847L219.69 161.046C219.726 161.064 219.765 161.074 219.804 161.074C219.844 161.074 219.883 161.064 219.919 161.046L234.291 152.465C234.351 152.427 234.339 152.365 234.291 152.328L233.948 152.123C233.914 152.104 233.876 152.094 233.837 152.094C233.798 152.094 233.76 152.104 233.726 152.123" fill="#AD6040"/>
<path d="M216.9 152.496L216.99 152.552L219.474 154.032L223.888 151.395L223.978 151.345L221.404 149.803L216.9 152.496Z" fill="#BFBFBF"/>
<path d="M216.99 152.552L219.474 154.032L223.887 151.395L221.404 149.915L216.99 152.552Z" fill="#E5E5E5"/>
<path d="M209.798 155.959V156.183C209.798 156.348 209.84 156.51 209.919 156.653C209.998 156.795 210.112 156.914 210.249 156.998L219.004 162.221C219.141 162.305 219.297 162.348 219.455 162.346C219.616 162.347 219.774 162.304 219.913 162.221L235.764 152.751C235.903 152.668 236.018 152.55 236.098 152.407C236.179 152.264 236.221 152.101 236.221 151.936V151.712L219.474 161.705L209.798 155.959Z" fill="#936A00"/>
<path d="M219.732 161.867C219.882 161.926 220.043 161.95 220.203 161.937C220.363 161.924 220.519 161.875 220.658 161.792L236.426 152.377C236.562 152.295 236.679 152.182 236.77 152.048C236.86 151.914 236.921 151.761 236.949 151.6L238.663 140.936C238.663 140.873 238.663 140.811 238.663 140.755C238.663 140.608 238.635 140.463 238.581 140.327C238.526 140.191 238.445 140.068 238.344 139.965L221.981 149.766C221.881 149.828 221.794 149.911 221.728 150.011C221.661 150.111 221.616 150.225 221.596 150.344L219.732 161.867Z" fill="#FAD037"/>
<path d="M219.474 161.724L219.582 161.792L219.732 161.867L221.596 150.344C221.616 150.225 221.661 150.111 221.728 150.011C221.794 149.911 221.881 149.828 221.981 149.766L238.368 139.984C238.304 139.916 238.231 139.857 238.151 139.81L221.729 149.641C221.628 149.701 221.541 149.784 221.474 149.883C221.408 149.982 221.363 150.095 221.344 150.213L219.474 161.724Z" fill="#E5E5E5"/>
<path d="M207.573 116.167C207.573 116.167 207.772 120.216 207.687 120.576C207.603 120.937 205.883 122.118 205.39 122.547C204.897 122.977 208.096 126.241 209.66 126.981C211.223 127.721 216.154 125.775 216.275 123.25C216.395 120.725 215.427 118.636 214.669 118.524C213.911 118.412 207.603 116.155 207.603 116.155" fill="#773E12"/>
<path d="M207.134 121.273C207.134 121.273 209.978 125.657 213.941 126.067C215.192 124.823 215.306 120.253 213.574 118.804C213.574 118.804 215.168 117.479 216.256 117.734C217.425 118.469 218.295 119.618 218.704 120.968C219.716 123.987 220.191 127.17 220.105 130.364C220.039 134.661 220.105 145.525 220.105 145.525C220.105 145.525 219.504 149.679 215.926 151.743C213.067 153.41 209.703 153.891 206.515 153.086C204.506 152.601 203.76 151.439 203.069 149.927C203.249 146.918 204.398 140.718 203.917 136.925C203.436 133.131 202.654 130.314 202.455 127.249C202.257 124.183 202.846 124.245 204.332 123.157C205.222 122.468 206.159 121.845 207.134 121.291" fill="#3780AD"/>
<path d="M211.692 156.183C210.977 155.697 210.234 155.257 209.467 154.865C208.747 154.633 208.093 154.223 207.561 153.671C206.863 152.968 205.721 150.294 204.909 147.695C204.093 144.758 203.767 141.698 203.947 138.647C204.296 134.997 205.564 129.885 205.889 127.783C206.214 125.682 205.552 124.848 204.608 124.052C203.502 123.144 201.968 123.549 201.151 126.49C200.105 130.566 199.5 134.75 199.346 138.964C199.315 142.094 199.782 145.208 200.73 148.18C201.574 150.729 202.714 153.161 204.127 155.425C204.518 156.102 204.644 156.706 205.24 158.092C205.815 159.486 206.709 160.715 207.844 161.674C208.836 162.414 209.311 162.514 209.545 162.371C209.78 162.228 209.774 161.867 209.359 161.475C208.641 160.909 208.03 160.211 207.555 159.417C207.555 159.417 208.421 160.318 208.992 160.816C209.499 161.255 210.059 161.623 210.658 161.91C211.259 162.172 212.047 161.662 211.638 161.257C211.229 160.853 210.802 160.636 209.966 159.908C209.516 159.518 209.112 159.073 208.764 158.584C209.346 159.048 209.964 159.464 210.61 159.827C211.116 160.147 211.7 160.311 212.294 160.3C212.606 160.3 212.979 159.84 212.402 159.411C211.609 158.985 210.868 158.463 210.195 157.856C209.557 157.197 209.197 156.612 209.377 156.612C209.557 156.612 209.906 157.016 210.652 157.234C211.398 157.452 212.197 157.234 212.294 156.83C212.39 156.426 212.36 156.488 211.662 156.127" fill="#773E12"/>
<path d="M216.413 110.129C215.944 106.983 213.755 104.601 210.622 104.781C209.828 104.826 209.051 105.032 208.335 105.387C207.618 105.743 206.976 106.241 206.446 106.853C205.916 107.465 205.508 108.18 205.245 108.955C204.983 109.731 204.87 110.552 204.915 111.373C204.969 112.327 205.235 113.255 205.691 114.085C206.148 114.915 206.784 115.626 207.549 116.161C207.66 116.638 207.821 117.101 208.03 117.542C209.143 118.879 212.498 119.712 213.442 119.569C214.681 119.382 215.348 118.848 215.938 117.448C216.978 114.961 216.653 111.684 216.395 110.129" fill="#773E12"/>
<path d="M207.573 116.161L207.862 113.419C207.862 113.419 205.691 107.617 210.814 108.73C214.194 109.47 215.024 109.787 216.07 107.443C217.116 105.098 213.472 102.984 209.161 103.569C207.683 103.731 206.317 104.459 205.331 105.61C204.345 106.76 203.811 108.25 203.833 109.787C203.947 111.516 204.392 115.004 207.573 116.13" fill="#3E2121"/>
<path d="M198.805 131.913C198.805 131.913 201.602 134.785 204.909 133.958C205.378 133.629 206.515 126.907 206.515 126.907C206.515 126.907 206.515 123.176 203.754 123.281C200.994 123.387 198.805 131.913 198.805 131.913" fill="#154461"/>
<path d="M219.913 126.335C219.913 126.335 221.374 126.26 221.975 125.383C221.867 123.878 220.003 118.163 216.256 117.734C217.275 118.474 218.083 119.484 218.596 120.657C219.177 122.511 219.617 124.409 219.913 126.335" fill="#154461"/>
<path d="M37.7405 2.46874C38.4802 1.22505 44.1148 0.435298 45.9729 5.37277C46.6765 7.23831 46.5743 12.039 47.1756 15.0487C47.777 18.0584 49.1481 19.7623 49.6472 22.2062C50.1463 24.65 49.3345 28.7356 43.6337 29.4631C37.9329 30.1907 33.5672 28.1199 32.2081 26.242C30.8491 24.364 30.8371 20.3842 32.2081 18.2388C33.5792 16.0934 34.6676 14.3585 34.6135 11.5664L37.7405 2.46874Z" fill="#2B2A30"/>
<path d="M41.4629 1.64167C41.4629 1.64167 37.2174 0.397977 34.6436 2.75478C33.7953 3.56388 33.1784 4.59852 32.8602 5.74565C32.5421 6.89278 32.5349 8.10826 32.8395 9.25931C33.1823 10.646 33.8678 12.5364 34.9322 12.6422C35.9966 12.7479 41.4629 1.64167 41.4629 1.64167Z" fill="#2B2A30"/>
<path d="M43.0865 13.5936C43.0865 13.5936 42.8099 18.4875 42.8941 18.842C42.9783 19.1964 44.7523 19.5509 45.2514 19.98C45.7505 20.409 42.6776 25.3714 41.1141 26.1052C39.5506 26.8389 34.7158 24.9672 34.379 22.4798C34.0723 20.1852 35.7681 18.4067 36.4176 17.7848C36.862 17.7529 37.3081 17.7529 37.7526 17.7848L37.8909 15.4094C40.0076 14.7129 43.0865 13.6247 43.0865 13.6247" fill="#FFCEA9"/>
<path d="M29.1653 39.7112C27.8231 41.6174 26.2348 43.3247 24.4448 44.7855C23.8768 45.3977 23.339 46.039 22.8332 46.707C21.9883 47.7146 20.8952 48.4668 19.6701 48.8834C18.5997 49.1695 18.1487 49.0949 17.9683 48.8834C17.7879 48.672 17.8721 48.3549 18.3411 48.1683C19.0986 47.9377 19.804 47.5529 20.4158 47.0365C20.4158 47.0365 19.4175 47.5092 18.7921 47.7392C18.2277 47.9414 17.6387 48.0607 17.0422 48.0937C16.4408 48.0937 15.8395 47.3848 16.3025 47.1796C16.7656 46.9744 17.1925 46.9557 18.1066 46.6013C18.5929 46.4228 19.0539 46.1782 19.4777 45.8737C18.8408 46.0695 18.189 46.2089 17.5293 46.2903C16.9793 46.3835 16.4151 46.3168 15.8996 46.0976C15.623 45.9732 15.3825 45.4757 16.0019 45.2829C16.8059 45.2036 17.5965 45.0155 18.3531 44.7233C19.0747 44.3813 19.5558 44.0268 19.3694 43.9522C19.183 43.8776 18.7681 44.1139 18.0705 44.0579C17.3729 44.0019 16.6694 43.5293 16.6754 43.1251C16.6814 42.7209 16.8317 42.9448 17.5413 42.8826C18.2509 42.8204 18.8162 42.4846 19.8324 42.4846C20.5937 42.5159 21.355 42.4214 22.0875 42.2048C22.8572 41.9685 24.5891 39.8231 25.9181 37.8519C27.3616 35.6588 28.5031 33.2687 29.3097 30.7504C30.1095 28.0391 31.0596 22.9648 31.7151 21.205C32.3705 19.4452 33.5612 18.6368 34.6737 18.5995C35.9786 18.5559 36.5379 20.3344 36.1891 21.8704C35.5877 24.563 32.6772 34.9292 29.1413 39.7298" fill="#FFCEA9"/>
<path d="M43.7359 19.3208C45.0649 19.5322 46.5863 20.266 46.7967 21.0184C47.0373 21.9015 47.5665 26.0368 46.4119 29.1895C45.2573 32.3423 43.9584 38.0198 43.2969 39.3816C43.2969 39.3816 38.0291 40.3517 33.3867 37.3793C33.3867 37.3793 33.1101 31.9008 33.092 30.0974C28.8104 26.2295 32.4907 21.4724 36.0988 17.7662C36.533 17.7289 36.9695 17.7289 37.4037 17.7662C37.4037 17.7662 34.1684 21.7211 36.4175 23.9847C41.2283 22.4736 42.1964 20.2536 43.7359 19.3457" fill="#FA8150"/>
<path d="M34.247 7.52436C34.722 4.41512 36.9169 2.00857 40.056 2.19512C41.3207 2.26229 42.5326 2.74061 43.519 3.56191C44.5053 4.38321 45.2158 5.50556 45.5491 6.76895C45.8823 8.03234 45.8214 9.37228 45.3749 10.5978C44.9285 11.8232 44.1193 12.8717 43.0627 13.5936C42.9543 14.0694 42.7929 14.5306 42.5816 14.9679C41.4631 16.3048 38.5165 17.1506 37.5423 17.163C36.7005 17.163 35.9728 16.3608 35.1851 15.0114C33.5434 12.1944 33.9824 9.07898 34.2229 7.54923" fill="#FFCEA9"/>
<path d="M41.0239 2.26353C43.2248 2.71126 45.0349 3.35176 45.6302 5.5842C46.0391 7.12638 46.5743 10.0553 46.0632 11.2928L45.7505 12.182L43.0865 13.606C43.0865 13.606 41.8417 12.5302 42.2326 9.3899C42.2157 8.96524 42.0845 8.55388 41.8538 8.20218C41.6885 7.90682 41.565 7.58852 41.4869 7.25697C41.173 6.40718 40.555 5.71476 39.7611 5.32302C37.7766 4.1726 34.8721 5.16756 34.4692 5.57798C35.0284 4.33188 35.9849 3.32247 37.1783 2.71901C38.3717 2.11555 39.7295 1.95474 41.0239 2.26353Z" fill="#2B2A30"/>
<path d="M28.913 77.507C27.8005 78.446 26.0686 77.7993 25.9844 77.8864C24.8539 79.0554 23.1641 80.0815 21.9073 81.1013C21.2157 81.6672 20.1333 82.4259 20.3318 83.5079C20.6805 85.448 23.6813 84.8511 24.8178 84.2603C25.9544 83.6696 26.8744 82.6808 27.9448 81.9906C28.7085 81.4993 29.4602 81.2506 29.5805 80.2494C29.6527 79.6276 29.1114 77.4884 28.913 77.507" fill="#AD6040"/>
<path d="M29.5684 79.8576C29.418 80.8153 28.6784 81.1013 27.9207 81.5677C26.8262 82.2642 25.8701 83.2778 24.7395 83.8686C23.609 84.4593 21.0774 84.9692 20.3738 83.5763C20.7707 85.4419 23.7233 84.8573 24.8478 84.2728C25.9723 83.6882 26.9044 82.6933 27.9748 82.003C28.7385 81.5118 29.4902 81.263 29.6104 80.2618C29.6246 80.1275 29.6246 79.992 29.6104 79.8576" fill="#873131"/>
<path d="M23.4884 74.3978C22.4721 75.256 20.9327 74.7771 20.8545 74.858C19.8202 75.9338 18.2808 76.8541 17.1262 77.7931C16.4948 78.3093 15.5025 78.9995 15.6829 79.9945C16.0017 81.773 18.7498 81.2382 19.7901 80.6847C20.8305 80.1313 21.6724 79.2358 22.6586 78.6077C23.3561 78.16 24.0477 77.9237 24.1559 77.0096C24.2221 76.4561 23.6688 74.3792 23.4884 74.3978" fill="#AD6040"/>
<path d="M24.144 76.6178C24.0057 77.4884 23.3262 77.7309 22.6346 78.1787C21.6364 78.8005 20.7584 79.7457 19.7181 80.2867C18.6777 80.8277 16.3686 81.2879 15.6951 80.0193C16.0619 81.7294 18.7619 81.1946 19.7902 80.6412C20.8185 80.0877 21.6725 79.1985 22.6587 78.5704C23.3562 78.1165 24.0478 77.8864 24.156 76.9723C24.1703 76.8504 24.1703 76.7272 24.156 76.6054" fill="#873131"/>
<path d="M38.9071 40.588C35.8889 40.9995 32.8195 40.5411 30.0372 39.2635C30.0853 40.2335 30.1334 41.129 30.1334 41.129C26.5253 43.7656 19.3092 48.2056 18.8101 51.2713C19.2791 60.9535 20.7043 74.7834 21.1072 74.9824C22.2438 75.542 23.0375 75.4487 23.5667 74.8953C23.5667 74.8953 25.8458 66.6931 25.1843 54.6542C25.1843 54.6542 37.8126 48.871 38.6365 45.712C39.1115 43.89 39.0153 43.6599 38.9793 41.7757C38.9793 41.384 38.9432 40.9984 38.9071 40.6129" fill="#FFCEA9"/>
<path d="M43.0985 39.3319C40.5969 40.5382 38.2877 40.6875 35.4734 40.389C35.5095 41.6824 35.6538 44.1201 35.6538 44.1201C32.0457 46.7567 24.8296 51.1967 24.3245 54.2624C24.7995 63.9446 25.6715 77.9672 26.0864 78.1413C26.5737 78.3615 27.1087 78.4442 27.6369 78.3808C28.1651 78.3174 28.6676 78.1104 29.0931 77.7807C29.0931 77.7807 31.3722 69.6967 30.7108 57.6453C30.7108 57.4214 41.535 51.9118 42.9061 50.4505C44.3794 48.8896 44.5477 46.8313 44.5116 44.7668C44.4756 42.8266 43.9103 41.2285 43.1105 39.3319" fill="#FFCEA9"/>
<path d="M45.7505 41.3839C45.7505 41.3839 49.7554 48.7155 43.0805 52.4839C36.0447 56.4575 31.7511 57.3903 31.7511 57.3903L30.6987 57.6452C30.6987 57.6452 31.1979 60.3067 30.6987 65.2629C30.6987 65.2629 25.6775 67.0787 19.2731 61.2457L17.1504 54.1816L16.8978 52.316C16.7752 51.6759 16.8088 51.0143 16.9957 50.3911C17.1826 49.7678 17.5169 49.2026 17.9682 48.7466C19.5017 47.3101 24.3726 43.6226 27.4034 41.5083C30.4341 39.394 32.8516 37.3792 32.8516 37.3792L33.3807 36.8693C33.3807 36.8693 36.9888 39.8231 43.5375 38.8344C44.4068 39.557 45.1598 40.4175 45.7685 41.3839" fill="#43B3FA"/>
<path d="M41.7817 52.2601C42.383 51.831 42.7919 51.2154 43.718 50.6806C44.4363 50.3104 45.0938 49.8257 45.6664 49.2441C46.2677 48.6223 47.1878 45.9483 47.6629 43.349C48.0985 40.4454 48.0497 37.4861 47.5185 34.5996C46.6881 31.1511 45.5673 27.7844 44.169 24.5381C43.279 22.5917 43.7782 21.4288 44.59 20.5458C45.5461 19.5322 46.5444 19.5571 47.6749 22.2746C48.8054 24.992 50.6155 30.1285 51.1928 34.0897C51.6494 37.0469 51.6107 40.0633 51.0785 43.007C50.6038 45.5803 49.8326 48.0856 48.7814 50.4691C48.4867 51.1718 48.4386 51.7626 48.0357 53.168C47.6438 54.5658 46.9322 55.8456 45.961 56.899C45.0951 57.7323 44.6561 57.894 44.4156 57.7821C44.175 57.6701 44.1329 57.3281 44.4877 56.899C45.0978 56.2648 45.5909 55.521 45.943 54.7039C45.943 54.7039 45.2154 55.6802 44.7403 56.2274C44.3106 56.7092 43.8189 57.1277 43.279 57.4711C42.7498 57.8007 41.914 57.4152 42.2628 56.9737C42.6115 56.5322 42.9904 56.2896 43.7 55.4688C44.0783 55.0381 44.4054 54.5621 44.6742 54.051C44.1708 54.5681 43.6279 55.0423 43.0505 55.4688C42.6033 55.8396 42.0629 56.0704 41.493 56.1342C41.1984 56.1342 40.7895 55.7797 41.2886 55.2947C41.9936 54.8152 42.6432 54.254 43.2249 53.6219C43.7541 52.913 44.0367 52.3409 43.8623 52.3471C43.688 52.3533 43.4053 52.7948 42.7198 53.1244C42.0342 53.454 41.2405 53.3421 41.1022 52.9503C40.9638 52.5585 41.1743 52.6954 41.7997 52.2601" fill="#FFCEA9"/>
<path d="M49.4247 25.931C49.4247 25.931 47.0193 28.1573 44.2952 27.7033L43.2248 23.0395C43.2248 23.0395 42.5092 20.5521 44.5477 19.6442C46.5863 18.7363 48.5227 21.1615 49.4006 25.931" fill="#EDEDED"/>
<path d="M36.0989 17.7662C36.0989 17.7662 33.471 16.9391 30.6868 22.9586L31.7271 23.6115C31.7271 23.6115 34.4752 19.3146 36.1049 17.7662" fill="#EDEDED"/>
<path d="M17.9683 43.7283L27.3312 38.1317C27.4126 38.0831 27.5049 38.0575 27.5988 38.0575C27.6928 38.0575 27.7851 38.0831 27.8664 38.1317L44.2832 47.932L34.6617 53.6841L17.9683 43.7283Z" fill="#40AD9F"/>
<path d="M34.8901 51.4827L35.6057 51.9118C35.6658 51.9118 35.6538 52.0051 35.6057 52.0486L34.9202 52.4528C34.8857 52.4709 34.8476 52.4803 34.8089 52.4803C34.7703 52.4803 34.7321 52.4709 34.6977 52.4528L33.964 52.0113C33.9039 51.974 33.9099 51.918 33.964 51.8745L34.6496 51.4703C34.6847 51.4507 34.7239 51.4405 34.7638 51.4405C34.8037 51.4405 34.843 51.4507 34.8781 51.4703" fill="#AD6040"/>
<path d="M33.8737 50.8796L34.5893 51.3086C34.6495 51.3086 34.6434 51.4019 34.5893 51.4392L33.9038 51.8497C33.8679 51.8665 33.8289 51.8752 33.7895 51.8752C33.7501 51.8752 33.7112 51.8665 33.6753 51.8497L32.9597 51.4206C32.8995 51.3833 32.9116 51.3211 32.9597 51.2838L33.6392 50.8734C33.6746 50.8548 33.7137 50.8451 33.7534 50.8451C33.7931 50.8451 33.8323 50.8548 33.8677 50.8734" fill="#AD6040"/>
<path d="M32.8515 50.264L33.5671 50.693C33.6213 50.7303 33.6153 50.7863 33.5671 50.8298L32.8816 51.2402C32.8473 51.2588 32.8091 51.2684 32.7704 51.2684C32.7316 51.2684 32.6935 51.2588 32.6591 51.2402L31.9435 50.8112C31.8834 50.7801 31.8894 50.7179 31.9435 50.6806L32.629 50.2702C32.6646 50.2521 32.7037 50.2426 32.7433 50.2426C32.7829 50.2426 32.822 50.2521 32.8576 50.2702" fill="#AD6040"/>
<path d="M31.8471 49.667L32.5627 50.096C32.6229 50.1333 32.6169 50.1893 32.5627 50.2328L31.8832 50.637C31.8481 50.6566 31.8089 50.6669 31.769 50.6669C31.7291 50.6669 31.6898 50.6566 31.6547 50.637L30.9391 50.208C30.879 50.1769 30.885 50.1147 30.9391 50.0712L31.6186 49.667C31.6542 49.6489 31.6933 49.6394 31.7329 49.6394C31.7725 49.6394 31.8116 49.6489 31.8471 49.667Z" fill="#AD6040"/>
<path d="M30.8372 49.0638L31.5528 49.4928C31.6069 49.5239 31.6009 49.5861 31.5528 49.6297L30.8672 50.0339C30.8317 50.052 30.7926 50.0614 30.753 50.0614C30.7134 50.0614 30.6743 50.052 30.6387 50.0339L29.9231 49.6048C29.869 49.5675 29.875 49.5115 29.9231 49.468L30.6087 49.0638C30.6438 49.0442 30.683 49.0339 30.7229 49.0339C30.7628 49.0339 30.8021 49.0442 30.8372 49.0638Z" fill="#AD6040"/>
<path d="M29.8208 48.4606L30.5364 48.8834C30.5965 48.9207 30.5905 48.9829 30.5364 49.0202L29.8568 49.4306C29.8214 49.4492 29.7823 49.4589 29.7426 49.4589C29.7029 49.4589 29.6637 49.4492 29.6283 49.4306L28.9127 49.0078C28.8526 48.9705 28.8586 48.9083 28.9127 48.871L29.5923 48.4606C29.6277 48.442 29.6668 48.4323 29.7065 48.4323C29.7462 48.4323 29.7854 48.442 29.8208 48.4606Z" fill="#AD6040"/>
<path d="M28.7925 47.8512L29.5081 48.2802C29.5622 48.3176 29.5562 48.3735 29.5081 48.4171L28.8226 48.8275C28.7872 48.846 28.748 48.8557 28.7083 48.8557C28.6686 48.8557 28.6295 48.846 28.5941 48.8275L27.8785 48.3984C27.8243 48.3984 27.8303 48.3051 27.8785 48.2678L28.564 47.8574C28.5995 47.8393 28.6386 47.8299 28.6783 47.8299C28.7179 47.8299 28.757 47.8393 28.7925 47.8574" fill="#AD6040"/>
<path d="M27.7942 47.248L28.5098 47.677C28.5699 47.7081 28.5639 47.7703 28.5098 47.8138L27.8303 48.218C27.7947 48.2361 27.7556 48.2456 27.716 48.2456C27.6764 48.2456 27.6373 48.2361 27.6017 48.218L26.8861 47.789C26.826 47.7517 26.832 47.6957 26.8861 47.6522L27.5657 47.248C27.6008 47.2284 27.64 47.2181 27.6799 47.2181C27.7198 47.2181 27.7591 47.2284 27.7942 47.248Z" fill="#AD6040"/>
<path d="M26.784 46.6448L27.4996 47.0677C27.5537 47.105 27.5477 47.1671 27.4996 47.2045L26.814 47.6149C26.7781 47.6317 26.7392 47.6404 26.6998 47.6404C26.6604 47.6404 26.6214 47.6317 26.5855 47.6149L25.8699 47.1858C25.8158 47.1485 25.8218 47.0863 25.8699 47.049L26.5554 46.6386C26.5909 46.62 26.63 46.6103 26.6697 46.6103C26.7094 46.6103 26.7485 46.62 26.784 46.6386" fill="#AD6040"/>
<path d="M25.7858 46.0354L26.5014 46.4644C26.5615 46.5018 26.5555 46.5639 26.5014 46.6013L25.7858 47.0365C25.7504 47.0551 25.7112 47.0648 25.6715 47.0648C25.6318 47.0648 25.5927 47.0551 25.5573 47.0365L24.8417 46.6137C24.7816 46.5764 24.7876 46.5142 24.8417 46.4769L25.5212 46.0665C25.5571 46.0496 25.5961 46.0409 25.6355 46.0409C25.6749 46.0409 25.7138 46.0496 25.7497 46.0665" fill="#AD6040"/>
<path d="M24.7576 45.4322L25.4732 45.8612C25.5273 45.8986 25.5213 45.9545 25.4732 45.998L24.7877 46.4022C24.7526 46.4218 24.7133 46.4321 24.6734 46.4321C24.6335 46.4321 24.5943 46.4218 24.5592 46.4022L23.8435 45.9732C23.7894 45.9421 23.7954 45.8799 23.8435 45.8364L24.5291 45.4322C24.5646 45.4141 24.6037 45.4047 24.6433 45.4047C24.683 45.4047 24.7221 45.4141 24.7576 45.4322Z" fill="#AD6040"/>
<path d="M23.7412 44.829L24.4568 45.2581C24.5169 45.2892 24.5109 45.3513 24.4568 45.3949L23.7773 45.7991C23.7417 45.8172 23.7026 45.8266 23.663 45.8266C23.6234 45.8266 23.5843 45.8172 23.5488 45.7991L22.8332 45.37C22.773 45.3327 22.779 45.2767 22.8332 45.2332L23.5127 44.829C23.5478 44.8094 23.587 44.7991 23.6269 44.7991C23.6668 44.7991 23.7061 44.8094 23.7412 44.829Z" fill="#AD6040"/>
<path d="M22.731 44.2258L23.4466 44.6487C23.5007 44.686 23.4947 44.7482 23.4466 44.7855L22.761 45.1959C22.7256 45.2145 22.6865 45.2241 22.6468 45.2241C22.6071 45.2241 22.5679 45.2145 22.5325 45.1959L21.8169 44.773C21.7628 44.7357 21.7688 44.6735 21.8169 44.6362L22.5025 44.2258C22.5379 44.2072 22.577 44.1976 22.6167 44.1976C22.6564 44.1976 22.6956 44.2072 22.731 44.2258Z" fill="#AD6040"/>
<path d="M21.2278 43.3054L22.4304 44.0206C22.4906 44.0579 22.4846 44.1201 22.4304 44.1574L21.7509 44.5678C21.7155 44.5864 21.6764 44.5961 21.6367 44.5961C21.597 44.5961 21.5578 44.5864 21.5224 44.5678L20.3197 43.8527C20.2596 43.8154 20.2656 43.7532 20.3197 43.7159L21.0053 43.3054C21.0407 43.2869 21.0798 43.2772 21.1195 43.2772C21.1592 43.2772 21.1984 43.2869 21.2338 43.3054" fill="#AD6040"/>
<path d="M34.3669 49.9965L35.0825 50.4256C35.1427 50.4629 35.1367 50.5251 35.0825 50.5624L34.403 50.9728C34.3676 50.9914 34.3285 51.0011 34.2888 51.0011C34.2491 51.0011 34.2099 50.9914 34.1745 50.9728L33.4589 50.55C33.3988 50.5127 33.4048 50.4505 33.4589 50.4132L34.1384 50.0027C34.1743 49.9859 34.2133 49.9772 34.2527 49.9772C34.2921 49.9772 34.331 49.9859 34.3669 50.0027" fill="#AD6040"/>
<path d="M33.3507 49.3933L34.0663 49.8224C34.1264 49.8535 34.1204 49.9157 34.0663 49.9592L33.3808 50.3634C33.3452 50.3815 33.3061 50.3909 33.2665 50.3909C33.2269 50.3909 33.1878 50.3815 33.1523 50.3634L32.4006 49.9468C32.3404 49.9095 32.3525 49.8535 32.4006 49.81L33.0801 49.4058C33.1152 49.3862 33.1545 49.3759 33.1944 49.3759C33.2342 49.3759 33.2735 49.3862 33.3086 49.4058" fill="#AD6040"/>
<path d="M32.3405 48.7901L33.0501 49.213C33.1103 49.2503 33.1043 49.3125 33.0501 49.3498L32.3646 49.7602C32.3292 49.7788 32.29 49.7885 32.2503 49.7885C32.2106 49.7885 32.1715 49.7788 32.1361 49.7602L31.4204 49.3374C31.3663 49.3001 31.3723 49.2379 31.4204 49.2006L32.106 48.7901C32.1414 48.7716 32.1806 48.7619 32.2203 48.7619C32.26 48.7619 32.2991 48.7716 32.3345 48.7901" fill="#AD6040"/>
<path d="M31.324 48.1807L32.0396 48.6098C32.0937 48.6409 32.0877 48.7031 32.0396 48.7466L31.3541 49.1508C31.3185 49.1689 31.2794 49.1783 31.2398 49.1783C31.2002 49.1783 31.1611 49.1689 31.1256 49.1508L30.41 48.7217C30.3558 48.7217 30.3618 48.6285 30.41 48.5849L31.0955 48.1807C31.131 48.1626 31.1701 48.1532 31.2097 48.1532C31.2494 48.1532 31.2885 48.1626 31.324 48.1807Z" fill="#AD6040"/>
<path d="M30.3141 47.5775L31.0297 48.0066C31.0898 48.0439 31.0838 48.1061 31.0297 48.1434L30.3441 48.5539C30.3087 48.5724 30.2696 48.5821 30.2299 48.5821C30.1902 48.5821 30.151 48.5724 30.1156 48.5539L29.394 48.131C29.3339 48.131 29.3459 48.0377 29.394 48.0004L30.0735 47.59C30.1094 47.5731 30.1484 47.5644 30.1878 47.5644C30.2272 47.5644 30.2661 47.5731 30.302 47.59" fill="#AD6040"/>
<path d="M29.2976 46.9744L30.0132 47.4034C30.0734 47.4034 30.0673 47.4967 30.0132 47.5403L29.3277 47.9445C29.2921 47.9626 29.2531 47.972 29.2134 47.972C29.1738 47.972 29.1347 47.9626 29.0992 47.9445L28.3836 47.5154C28.3295 47.4781 28.3355 47.4221 28.3836 47.3786L29.0691 46.9744C29.1031 46.9548 29.1414 46.9445 29.1804 46.9445C29.2193 46.9445 29.2576 46.9548 29.2916 46.9744" fill="#AD6040"/>
<path d="M28.2874 46.3711L29.003 46.794C29.0571 46.8313 29.0511 46.8935 29.003 46.9308L28.3174 47.3412C28.282 47.3598 28.2429 47.3695 28.2032 47.3695C28.1635 47.3695 28.1243 47.3598 28.0889 47.3412L27.3733 46.9184C27.3192 46.8811 27.3252 46.8189 27.3733 46.7816L28.0589 46.3711C28.0943 46.3526 28.1334 46.3429 28.1731 46.3429C28.2128 46.3429 28.252 46.3526 28.2874 46.3711Z" fill="#AD6040"/>
<path d="M27.271 45.7928L27.9866 46.2219C28.0467 46.253 28.0347 46.3152 27.9866 46.3587L27.3071 46.7629C27.2715 46.781 27.2324 46.7905 27.1928 46.7905C27.1532 46.7905 27.1141 46.781 27.0786 46.7629L26.3629 46.3339C26.3028 46.2965 26.3088 46.2406 26.3629 46.197L27.0485 45.7928C27.0836 45.7732 27.1228 45.763 27.1627 45.763C27.2026 45.763 27.2419 45.7732 27.277 45.7928" fill="#AD6040"/>
<path d="M26.2549 45.171L26.9705 45.5938C27.0306 45.6312 27.0246 45.6933 26.9705 45.7307L26.291 46.1411C26.2555 46.1596 26.2164 46.1693 26.1767 46.1693C26.137 46.1693 26.0978 46.1596 26.0624 46.1411L25.3468 45.7182C25.2867 45.6809 25.2927 45.6187 25.3468 45.5814L26.0264 45.171C26.0618 45.1524 26.1009 45.1427 26.1406 45.1427C26.1803 45.1427 26.2195 45.1524 26.2549 45.171Z" fill="#AD6040"/>
<path d="M25.2384 44.5492L25.954 44.9782C26.0142 45.0155 26.0082 45.0715 25.954 45.115L25.2685 45.5192C25.2334 45.5388 25.1942 45.5491 25.1543 45.5491C25.1144 45.5491 25.0751 45.5388 25.04 45.5192L24.3244 45.0902C24.2643 45.0902 24.2763 44.9969 24.3244 44.9534L25.0039 44.5492C25.0395 44.5311 25.0786 44.5216 25.1182 44.5216C25.1578 44.5216 25.1969 44.5311 25.2324 44.5492" fill="#AD6040"/>
<path d="M24.2222 43.9273L24.9378 44.3502C24.9979 44.3875 24.9919 44.4497 24.9378 44.487L24.2522 44.8974C24.2168 44.9159 24.1777 44.9256 24.138 44.9256C24.0983 44.9256 24.0591 44.9159 24.0237 44.8974L23.3081 44.4745C23.254 44.4372 23.26 44.375 23.3081 44.3377L23.9816 43.9273C24.016 43.9088 24.0542 43.8991 24.0929 43.8991C24.1316 43.8991 24.1698 43.9088 24.2041 43.9273" fill="#AD6040"/>
<path d="M23.2119 43.3365L23.9275 43.7656C23.9817 43.8029 23.9756 43.8589 23.9275 43.9024L23.242 44.3066C23.2069 44.3262 23.1676 44.3365 23.1277 44.3365C23.0879 44.3365 23.0486 44.3262 23.0135 44.3066L22.2979 43.8775C22.2438 43.8465 22.2498 43.7843 22.2979 43.7407L22.9834 43.3365C23.019 43.3184 23.0581 43.309 23.0977 43.309C23.1373 43.309 23.1764 43.3184 23.2119 43.3365Z" fill="#AD6040"/>
<path d="M35.4072 50.606L36.6099 51.3273C36.67 51.3273 36.664 51.4206 36.6099 51.4579L35.9304 51.8683C35.8945 51.8851 35.8555 51.8938 35.8161 51.8938C35.7767 51.8938 35.7378 51.8851 35.7019 51.8683L34.4992 51.147C34.439 51.1097 34.4451 51.0537 34.4992 51.0102L35.1847 50.606C35.2198 50.5864 35.2591 50.5761 35.299 50.5761C35.3389 50.5761 35.3781 50.5864 35.4132 50.606" fill="#AD6040"/>
<path d="M21.2755 43.3054L21.9911 43.7345C22.0233 43.753 22.0595 43.7627 22.0963 43.7627C22.1332 43.7627 22.1694 43.753 22.2016 43.7345L22.9232 43.3054C22.9833 43.2681 22.9833 43.2122 22.9232 43.1749H22.863C22.851 43.1708 22.8405 43.1629 22.8331 43.1522C22.8257 43.1416 22.8217 43.1289 22.8217 43.1158C22.8217 43.1027 22.8257 43.0899 22.8331 43.0793C22.8405 43.0687 22.851 43.0608 22.863 43.0567L23.6267 42.6028C23.6869 42.5654 23.6869 42.5095 23.6267 42.4722L23.1757 42.1986C23.142 42.1815 23.105 42.1727 23.0675 42.1727C23.03 42.1727 22.993 42.1815 22.9593 42.1986L22.2497 42.6214L22.0993 42.7085L21.9911 42.7769L21.8889 42.8391L21.2875 43.2059C21.2274 43.2433 21.2274 43.2992 21.2875 43.3303" fill="#AD6040"/>
<path d="M38.811 49.1384L39.5265 49.5612C39.5867 49.5985 39.5807 49.6607 39.5265 49.698L38.841 50.1085C38.8056 50.127 38.7665 50.1367 38.7268 50.1367C38.6871 50.1367 38.6479 50.127 38.6125 50.1085L37.8969 49.6856C37.8368 49.6483 37.8488 49.5861 37.8969 49.5488L38.5764 49.1384C38.6118 49.1198 38.651 49.1101 38.6907 49.1101C38.7304 49.1101 38.7695 49.1198 38.8049 49.1384" fill="#AD6040"/>
<path d="M37.8127 48.5352L38.5283 48.958C38.5884 48.9954 38.5824 49.0575 38.5283 49.0948L37.8127 49.5239C37.7773 49.5425 37.7382 49.5522 37.6985 49.5522C37.6588 49.5522 37.6196 49.5425 37.5842 49.5239L36.8686 49.1011C36.8085 49.0638 36.8205 49.0016 36.8686 48.9643L37.5481 48.5538C37.5835 48.5353 37.6227 48.5256 37.6624 48.5256C37.7021 48.5256 37.7412 48.5353 37.7766 48.5538" fill="#AD6040"/>
<path d="M36.7905 47.932L37.5061 48.3548C37.5662 48.3922 37.5602 48.4543 37.5061 48.4917L36.8205 48.9021C36.7851 48.9207 36.746 48.9303 36.7063 48.9303C36.6666 48.9303 36.6274 48.9207 36.592 48.9021L35.8764 48.4792C35.8163 48.4419 35.8283 48.3797 35.8764 48.3424L36.556 47.932C36.5914 47.9134 36.6305 47.9037 36.6702 47.9037C36.7099 47.9037 36.7491 47.9134 36.7845 47.932" fill="#AD6040"/>
<path d="M28.1911 42.7893L28.9067 43.2184C28.9668 43.2557 28.9608 43.3117 28.9067 43.3552L28.2212 43.7656C28.1857 43.7842 28.1466 43.7939 28.1069 43.7939C28.0672 43.7939 28.028 43.7842 27.9926 43.7656L27.277 43.3365C27.2169 43.3055 27.2289 43.2433 27.277 43.1997L27.9566 42.7955C27.9921 42.7774 28.0312 42.768 28.0708 42.768C28.1104 42.768 28.1495 42.7774 28.1851 42.7955" fill="#AD6040"/>
<path d="M27.1747 42.1861L27.8903 42.6152C27.9505 42.6525 27.9445 42.7085 27.8903 42.752L27.2048 43.1624C27.1694 43.181 27.1303 43.1907 27.0905 43.1907C27.0508 43.1907 27.0117 43.181 26.9763 43.1624L26.2607 42.7334C26.2006 42.7023 26.2126 42.6401 26.2607 42.6028L26.9402 42.1923C26.9758 42.1742 27.0148 42.1648 27.0545 42.1648C27.0941 42.1648 27.1332 42.1742 27.1687 42.1923" fill="#AD6040"/>
<path d="M26.1647 41.5829L26.8803 42.012C26.9405 42.0493 26.9345 42.1053 26.8803 42.1488L26.1948 42.5592C26.1594 42.5778 26.1202 42.5875 26.0805 42.5875C26.0408 42.5875 26.0017 42.5778 25.9663 42.5592L25.2507 42.1302C25.1905 42.0991 25.2026 42.0369 25.2507 41.9934L25.9302 41.5892C25.9657 41.5711 26.0048 41.5616 26.0445 41.5616C26.0841 41.5616 26.1232 41.5711 26.1587 41.5892" fill="#AD6040"/>
<path d="M25.1842 40.9797L25.8998 41.4088C25.96 41.4461 25.954 41.5021 25.8998 41.5456L25.2143 41.9561C25.1789 41.9746 25.1398 41.9843 25.1001 41.9843C25.0604 41.9843 25.0212 41.9746 24.9858 41.9561L24.2702 41.527C24.2101 41.4959 24.2221 41.4337 24.2702 41.3902L24.9497 40.986C24.9853 40.9679 25.0244 40.9584 25.064 40.9584C25.1036 40.9584 25.1427 40.9679 25.1782 40.986" fill="#AD6040"/>
<path d="M35.5216 47.1671L36.4958 47.7517C36.5559 47.789 36.5499 47.8512 36.4958 47.8885L35.8103 48.2989C35.7749 48.3175 35.7357 48.3272 35.696 48.3272C35.6563 48.3272 35.6172 48.3175 35.5818 48.2989L34.6076 47.7144C34.5474 47.7144 34.5535 47.6211 34.6076 47.5838L35.2931 47.1733C35.329 47.1565 35.368 47.1478 35.4074 47.1478C35.4468 47.1478 35.4857 47.1565 35.5216 47.1733" fill="#AD6040"/>
<path d="M29.1953 43.3925L30.1755 43.9771C30.2296 44.0144 30.2236 44.0703 30.1755 44.1139L29.49 44.5243C29.4546 44.5429 29.4154 44.5525 29.3757 44.5525C29.336 44.5525 29.2969 44.5429 29.2615 44.5243L28.2692 43.9273C28.2091 43.8962 28.2211 43.834 28.2692 43.7905L28.9488 43.3863C28.9843 43.3682 29.0234 43.3588 29.063 43.3588C29.1026 43.3588 29.1417 43.3682 29.1773 43.3863" fill="#AD6040"/>
<path d="M30.4702 44.1512L35.2269 46.993C35.287 47.0303 35.281 47.0925 35.2269 47.1298L34.5473 47.5402C34.5119 47.5588 34.4728 47.5685 34.4331 47.5685C34.3934 47.5685 34.3542 47.5588 34.3188 47.5402L29.5622 44.6984C29.502 44.6673 29.508 44.6051 29.5622 44.5616L30.2477 44.1574C30.2832 44.1393 30.3223 44.1299 30.362 44.1299C30.4016 44.1299 30.4407 44.1393 30.4762 44.1574" fill="#AD6040"/>
<path d="M35.0767 49.2503L35.7923 49.6732C35.8464 49.7105 35.8404 49.7727 35.7923 49.81L35.1068 50.2204C35.0709 50.2372 35.0319 50.246 34.9925 50.246C34.9531 50.246 34.9141 50.2372 34.8782 50.2204L34.1626 49.7913C34.1085 49.754 34.1145 49.6918 34.1626 49.6545L34.8482 49.2441C34.8836 49.2255 34.9227 49.2158 34.9624 49.2158C35.0021 49.2158 35.0413 49.2255 35.0767 49.2441" fill="#AD6040"/>
<path d="M34.0602 48.6471L34.7759 49.07C34.836 49.1073 34.83 49.1695 34.7759 49.2068L34.0903 49.6172C34.0549 49.6358 34.0158 49.6455 33.9761 49.6455C33.9364 49.6455 33.8972 49.6358 33.8618 49.6172L33.1462 49.1944C33.086 49.157 33.0981 49.0949 33.1462 49.0576L33.8257 48.6471C33.8611 48.6286 33.9003 48.6189 33.94 48.6189C33.9797 48.6189 34.0188 48.6286 34.0542 48.6471" fill="#AD6040"/>
<path d="M33.05 48.0377L33.7657 48.4668C33.8258 48.5041 33.8138 48.5601 33.7657 48.6036L33.0861 49.014C33.0507 49.0326 33.0116 49.0423 32.9719 49.0423C32.9322 49.0423 32.893 49.0326 32.8576 49.014L32.142 48.5849C32.0819 48.5539 32.0879 48.4917 32.142 48.4481L32.8275 48.0439C32.8631 48.0258 32.9022 48.0164 32.9418 48.0164C32.9814 48.0164 33.0205 48.0258 33.0561 48.0439" fill="#AD6040"/>
<path d="M32.0398 47.4345L32.7554 47.8636C32.8095 47.9009 32.8035 47.9569 32.7554 48.0004L32.0699 48.4046C32.0348 48.4242 31.9955 48.4345 31.9556 48.4345C31.9157 48.4345 31.8765 48.4242 31.8414 48.4046L31.1258 47.9755C31.0717 47.9444 31.0777 47.8822 31.1258 47.8387L31.8113 47.4345C31.8468 47.4164 31.8859 47.407 31.9256 47.407C31.9652 47.407 32.0043 47.4164 32.0398 47.4345Z" fill="#AD6040"/>
<path d="M31.0236 46.8313L31.7392 47.2604C31.7993 47.2604 31.7933 47.3537 31.7392 47.3972L31.0537 47.8014C31.0181 47.8195 30.979 47.8289 30.9394 47.8289C30.8998 47.8289 30.8607 47.8195 30.8252 47.8014L30.1096 47.3723C30.0494 47.335 30.0615 47.2791 30.1096 47.2355L30.7891 46.8313C30.8242 46.8117 30.8634 46.8015 30.9033 46.8015C30.9432 46.8015 30.9825 46.8117 31.0176 46.8313" fill="#AD6040"/>
<path d="M29.9951 46.2281L30.7107 46.6572C30.7708 46.6883 30.7588 46.7505 30.7107 46.7878L30.0312 47.1982C29.9953 47.215 29.9563 47.2237 29.9169 47.2237C29.8775 47.2237 29.8385 47.215 29.8027 47.1982L29.0871 46.7691C29.0269 46.7318 29.0329 46.6696 29.0871 46.6323L29.7726 46.2219C29.808 46.2033 29.8471 46.1937 29.8868 46.1937C29.9265 46.1937 29.9657 46.2033 30.0011 46.2219" fill="#AD6040"/>
<path d="M29.0029 45.625L29.7185 46.0478C29.7727 46.0851 29.7667 46.1473 29.7185 46.1846L29.033 46.595C28.9976 46.6136 28.9585 46.6233 28.9188 46.6233C28.8791 46.6233 28.8399 46.6136 28.8045 46.595L28.0889 46.1722C28.0348 46.1349 28.0408 46.0727 28.0889 46.0354L28.7744 45.625C28.8098 45.6064 28.849 45.5967 28.8887 45.5967C28.9284 45.5967 28.9675 45.6064 29.0029 45.625Z" fill="#AD6040"/>
<path d="M27.9867 45.0155L28.7023 45.4446C28.7625 45.4819 28.7564 45.5441 28.7023 45.5814L28.0168 45.9918C27.9814 46.0104 27.9422 46.0201 27.9025 46.0201C27.8628 46.0201 27.8237 46.0104 27.7883 45.9918L27.0727 45.5628C27.0126 45.5628 27.0246 45.4695 27.0727 45.4322L27.7522 45.0218C27.7881 45.0049 27.8271 44.9962 27.8665 44.9962C27.9059 44.9962 27.9448 45.0049 27.9807 45.0218" fill="#AD6040"/>
<path d="M26.9885 44.4123L27.7041 44.8414C27.7642 44.8787 27.7582 44.9347 27.7041 44.9782L27.0246 45.3824C26.9895 45.402 26.9502 45.4123 26.9103 45.4123C26.8704 45.4123 26.8312 45.402 26.7961 45.3824L26.0805 44.9534C26.0203 44.9534 26.0264 44.8601 26.0805 44.8165L26.76 44.4123C26.7955 44.3942 26.8346 44.3848 26.8742 44.3848C26.9139 44.3848 26.9529 44.3942 26.9885 44.4123Z" fill="#AD6040"/>
<path d="M25.9661 43.8092L26.6817 44.2382C26.7358 44.2693 26.7298 44.3315 26.6817 44.375L25.9962 44.7792C25.9611 44.7988 25.9218 44.8091 25.8819 44.8091C25.842 44.8091 25.8028 44.7988 25.7677 44.7792L25.052 44.3502C24.9979 44.3502 25.0039 44.2569 25.052 44.2134L25.7376 43.8092C25.7731 43.7911 25.8122 43.7816 25.8518 43.7816C25.8915 43.7816 25.9306 43.7911 25.9661 43.8092Z" fill="#AD6040"/>
<path d="M24.9499 43.206L25.6655 43.635C25.7256 43.6661 25.7196 43.7283 25.6655 43.7718L24.98 44.176C24.9444 44.1941 24.9053 44.2036 24.8657 44.2036C24.8261 44.2036 24.787 44.1941 24.7514 44.176L24.0358 43.747C23.9757 43.7097 23.9877 43.6537 24.0358 43.6102L24.7154 43.206C24.7505 43.1864 24.7897 43.1761 24.8296 43.1761C24.8695 43.1761 24.9088 43.1864 24.9439 43.206" fill="#AD6040"/>
<path d="M23.9394 42.6028L24.655 43.0256C24.7152 43.0629 24.7092 43.1251 24.655 43.1624L23.9755 43.5728C23.9401 43.5914 23.901 43.6011 23.8613 43.6011C23.8216 43.6011 23.7824 43.5914 23.747 43.5728L23.0314 43.15C22.9713 43.1127 22.9773 43.0505 23.0314 43.0132L23.7109 42.6028C23.7463 42.5842 23.7855 42.5745 23.8252 42.5745C23.8649 42.5745 23.904 42.5842 23.9394 42.6028Z" fill="#AD6040"/>
<path d="M36.0869 49.8535L37.5662 50.7676C37.6264 50.8049 37.6204 50.8609 37.5662 50.9044L36.8867 51.3086C36.8516 51.3282 36.8123 51.3385 36.7724 51.3385C36.7326 51.3385 36.6933 51.3282 36.6582 51.3086L35.1789 50.4256C35.1187 50.3883 35.1247 50.3261 35.1789 50.2888L35.8644 49.8784C35.8998 49.8598 35.939 49.8501 35.9787 49.8501C36.0184 49.8501 36.0575 49.8598 36.0929 49.8784" fill="#AD6040"/>
<path d="M36.5557 48.9643L37.2713 49.3871C37.3315 49.4245 37.3255 49.4866 37.2713 49.5239L36.5858 49.9344C36.5504 49.9529 36.5113 49.9626 36.4716 49.9626C36.4319 49.9626 36.3927 49.9529 36.3573 49.9344L35.6297 49.5239C35.5756 49.4866 35.5816 49.4245 35.6297 49.3871L36.3152 48.9767C36.3496 48.9582 36.3877 48.9485 36.4265 48.9485C36.4652 48.9485 36.5034 48.9582 36.5377 48.9767" fill="#AD6040"/>
<path d="M35.5456 48.3611L36.2612 48.7839C36.3213 48.8213 36.3153 48.8834 36.2612 48.9207L35.5817 49.3312C35.5463 49.3497 35.5071 49.3594 35.4674 49.3594C35.4277 49.3594 35.3886 49.3497 35.3532 49.3312L34.6195 48.9021C34.5594 48.8648 34.5654 48.8026 34.6195 48.7653L35.2991 48.3549C35.3345 48.3363 35.3736 48.3266 35.4133 48.3266C35.453 48.3266 35.4922 48.3363 35.5276 48.3549" fill="#AD6040"/>
<path d="M34.5353 47.7516L35.2509 48.1807C35.311 48.218 35.299 48.274 35.2509 48.3175L34.5714 48.728C34.536 48.7465 34.4968 48.7562 34.4571 48.7562C34.4174 48.7562 34.3783 48.7465 34.3428 48.728L33.6032 48.2802C33.543 48.2802 33.5491 48.1869 33.6032 48.1434L34.2887 47.7392C34.3243 47.7211 34.3634 47.7117 34.403 47.7117C34.4426 47.7117 34.4817 47.7211 34.5172 47.7392" fill="#AD6040"/>
<path d="M33.5252 47.1485L34.2408 47.5775C34.2949 47.5775 34.2889 47.6708 34.2408 47.7143L33.5552 48.1185C33.5201 48.1381 33.4809 48.1484 33.441 48.1484C33.4011 48.1484 33.3618 48.1381 33.3267 48.1185L32.6111 47.6895C32.557 47.6895 32.563 47.5962 32.6111 47.5527L33.2967 47.1485C33.3322 47.1304 33.3713 47.121 33.4109 47.121C33.4505 47.121 33.4896 47.1304 33.5252 47.1485Z" fill="#AD6040"/>
<path d="M32.5087 46.5453L33.2243 46.9744C33.2845 46.9744 33.2785 47.0676 33.2243 47.1112L32.5388 47.5154C32.5032 47.5335 32.4642 47.5429 32.4245 47.5429C32.3849 47.5429 32.3458 47.5335 32.3103 47.5154L31.5947 47.0863C31.5345 47.049 31.5466 46.993 31.5947 46.9495L32.2742 46.5453C32.3093 46.5257 32.3486 46.5154 32.3885 46.5154C32.4283 46.5154 32.4676 46.5257 32.5027 46.5453" fill="#AD6040"/>
<path d="M31.4986 45.9421L32.2142 46.3712C32.2743 46.3712 32.2623 46.4644 32.2142 46.5018L31.5347 46.9122C31.4988 46.929 31.4598 46.9377 31.4204 46.9377C31.381 46.9377 31.3421 46.929 31.3062 46.9122L30.5966 46.4955C30.5365 46.4582 30.5425 46.396 30.5966 46.3587L31.2821 45.9483C31.3175 45.9297 31.3567 45.92 31.3964 45.92C31.4361 45.92 31.4752 45.9297 31.5106 45.9483" fill="#AD6040"/>
<path d="M30.4882 45.3389L31.1978 45.7929C31.252 45.8302 31.2459 45.8924 31.1978 45.9297L30.5123 46.3401C30.4769 46.3587 30.4377 46.3683 30.398 46.3683C30.3583 46.3683 30.3192 46.3587 30.2838 46.3401L29.5682 45.9172C29.514 45.8799 29.52 45.8177 29.5682 45.7804L30.2537 45.37C30.2891 45.3514 30.3283 45.3418 30.368 45.3418C30.4077 45.3418 30.4468 45.3514 30.4822 45.37" fill="#AD6040"/>
<path d="M29.4722 44.7357L30.1878 45.1586C30.2479 45.1959 30.2419 45.2581 30.1878 45.2954L29.5022 45.7058C29.4668 45.7244 29.4277 45.734 29.388 45.734C29.3483 45.734 29.3091 45.7244 29.2737 45.7058L28.5581 45.2829C28.504 45.2456 28.51 45.1834 28.5581 45.1461L29.2437 44.7357C29.278 44.7172 29.3162 44.7075 29.3549 44.7075C29.3937 44.7075 29.4318 44.7172 29.4662 44.7357" fill="#AD6040"/>
<path d="M28.4617 44.1263L29.1773 44.5554C29.2374 44.5927 29.2314 44.6487 29.1773 44.6922L28.4977 45.1026C28.4623 45.1212 28.4232 45.1309 28.3835 45.1309C28.3438 45.1309 28.3046 45.1212 28.2692 45.1026L27.5536 44.6735C27.4935 44.6424 27.4995 44.5803 27.5536 44.5367L28.2331 44.1325C28.2687 44.1144 28.3078 44.105 28.3474 44.105C28.387 44.105 28.4261 44.1144 28.4617 44.1325" fill="#AD6040"/>
<path d="M27.4515 43.5231L28.1912 43.9273C28.2513 43.9646 28.2393 44.0206 28.1912 44.0641L27.5116 44.4683C27.4765 44.4879 27.4373 44.4982 27.3974 44.4982C27.3575 44.4982 27.3182 44.4879 27.2831 44.4683L26.5675 44.0392C26.5074 44.0081 26.5134 43.946 26.5675 43.9024L27.2531 43.4982C27.2886 43.4801 27.3277 43.4707 27.3673 43.4707C27.4069 43.4707 27.446 43.4801 27.4816 43.4982" fill="#AD6040"/>
<path d="M26.4412 42.9199L27.1568 43.349C27.2109 43.3801 27.2049 43.4423 27.1568 43.4858L26.4712 43.89C26.4357 43.9081 26.3966 43.9175 26.357 43.9175C26.3174 43.9175 26.2783 43.9081 26.2427 43.89L25.5271 43.4609C25.473 43.4236 25.479 43.3676 25.5271 43.3241L26.2127 42.9199C26.2478 42.9003 26.287 42.8901 26.3269 42.8901C26.3668 42.8901 26.4061 42.9003 26.4412 42.9199Z" fill="#AD6040"/>
<path d="M24.1742 41.5705L26.1406 42.7458C26.2008 42.7769 26.1948 42.8391 26.1406 42.8826L25.4551 43.2868C25.4196 43.3049 25.3805 43.3143 25.3408 43.3143C25.3012 43.3143 25.2621 43.3049 25.2266 43.2868L23.2602 42.1115C23.2 42.0742 23.206 42.012 23.2602 41.9747L23.9457 41.5643C23.9811 41.5457 24.0203 41.536 24.06 41.536C24.0997 41.536 24.1388 41.5457 24.1742 41.5643" fill="#AD6040"/>
<path d="M37.5722 49.5675L38.5464 50.152C38.6065 50.1831 38.6005 50.2453 38.5464 50.2826L37.8669 50.693C37.831 50.7098 37.792 50.7185 37.7526 50.7185C37.7132 50.7185 37.6742 50.7098 37.6383 50.693L36.6461 50.1458C36.586 50.1085 36.592 50.0463 36.6461 50.009L37.3317 49.5986C37.3671 49.58 37.4062 49.5703 37.4459 49.5703C37.4856 49.5703 37.5248 49.58 37.5602 49.5986" fill="#AD6040"/>
<path d="M20.2112 43.9273L34.5834 52.5088C34.6435 52.5461 34.6375 52.6021 34.5834 52.6456L34.2406 52.8508C34.2063 52.8693 34.1681 52.879 34.1294 52.879C34.0906 52.879 34.0525 52.8693 34.0181 52.8508L19.6399 44.2693C19.5858 44.2693 19.5918 44.176 19.6399 44.1325L19.9827 43.9335C20.0182 43.9154 20.0573 43.906 20.097 43.906C20.1366 43.906 20.1757 43.9154 20.2112 43.9335" fill="#AD6040"/>
<path d="M37.2114 44.4932L37.1212 44.5492L34.6437 46.0292L30.2418 43.3987L30.1516 43.349L32.7194 41.813L37.2114 44.4932Z" fill="#BFBFBF"/>
<path d="M37.1151 44.5492L34.6436 46.0292L30.2417 43.3987L32.7192 41.9249L37.1151 44.5492Z" fill="#E5E5E5"/>
<path d="M44.2711 47.9444V48.1745C44.2712 48.3384 44.2295 48.4993 44.1504 48.6413C44.0712 48.7832 43.9573 48.901 43.8201 48.9829L35.1005 54.1878C34.9621 54.269 34.8057 54.3117 34.6465 54.3117C34.4874 54.3117 34.3309 54.269 34.1925 54.1878L18.4132 44.7668C18.2756 44.6854 18.1613 44.5676 18.0821 44.4256C18.0028 44.2836 17.9615 44.1224 17.9622 43.9584V43.7283L34.6435 53.6779L44.2711 47.9444Z" fill="#106156"/>
<path d="M34.6434 53.6965V54.3184C34.486 54.3182 34.331 54.2776 34.1924 54.2002L18.4131 44.7668C18.2747 44.6857 18.1596 44.5682 18.0794 44.4262C17.9991 44.2842 17.9566 44.1229 17.9561 43.9584V43.7283L34.6434 53.6965Z" fill="#0B4E45"/>
<path d="M34.3911 53.8333C34.242 53.8922 34.0821 53.9161 33.9229 53.9031C33.7638 53.8902 33.6095 53.8409 33.471 53.7587L17.7579 44.375C17.6217 44.2935 17.5044 44.1823 17.414 44.0492C17.3237 43.916 17.2625 43.7641 17.2347 43.6039L15.5148 32.9952C15.5091 32.9353 15.5091 32.8749 15.5148 32.8149C15.5141 32.5193 15.6265 32.2354 15.8275 32.0251L32.1601 41.7757C32.2601 41.837 32.3463 41.9198 32.4127 42.0185C32.4791 42.1172 32.5242 42.2295 32.545 42.3478L34.3911 53.8333Z" fill="#40AD9F"/>
<path d="M34.6436 53.6965L34.5353 53.7587L34.391 53.8333L32.5329 42.3478C32.5121 42.2295 32.4669 42.1172 32.4005 42.0185C32.3342 41.9198 32.248 41.837 32.148 41.7757L15.8154 32.0251C15.8808 31.9604 15.9535 31.904 16.0319 31.8572L32.4006 41.6265C32.5016 41.6865 32.5886 41.7689 32.6551 41.8678C32.7217 41.9667 32.7662 42.0797 32.7854 42.1986L34.6436 53.6965Z" fill="#106156"/>
</svg>
