<svg width="151" height="57" viewBox="0 0 151 57" fill="none" xmlns="http://www.w3.org/2000/svg">
<rect x="1.5" y="1.5" width="148" height="54" stroke="#F3BE00" stroke-width="3"/>
<path d="M12.3816 32.208C12.3816 36.864 15.4296 39.168 19.3416 39.168C23.2296 39.168 26.4936 36.864 26.4936 32.208V22.152H22.3896V32.232C22.3896 34.224 21.3576 35.376 19.4136 35.376C17.4696 35.376 16.4856 34.224 16.4856 32.232V22.152H12.3816V32.208ZM45.2155 33.984C45.2155 28.344 36.8875 29.664 36.8875 26.736C36.8875 25.68 37.6315 25.176 38.6155 25.2C39.7195 25.224 40.4875 25.872 40.5595 26.952H44.9995C44.8315 23.736 42.3595 21.912 38.6875 21.912C35.1595 21.912 32.5435 23.688 32.5435 26.88C32.4955 32.856 40.9195 31.176 40.9195 34.296C40.9195 35.28 40.1515 35.88 38.9515 35.88C37.7995 35.88 36.9835 35.256 36.8635 33.96H32.4955C32.6155 37.368 35.4475 39.168 39.0715 39.168C43.0075 39.168 45.2155 36.816 45.2155 33.984ZM61.6611 22.152H51.3411V39H61.6611V35.712H55.4451V32.016H60.9411V28.848H55.4451V25.44H61.6611V22.152ZM76.8295 27.624C76.8295 28.944 76.1095 29.736 74.5735 29.736H72.0295V25.56H74.5735C76.1095 25.56 76.8295 26.376 76.8295 27.624ZM67.9255 22.152V39H72.0295V32.64H73.0135L76.5175 39H81.1495L77.2615 32.328C79.8535 31.56 81.0055 29.568 81.0055 27.456C81.0055 24.528 78.9415 22.152 74.8135 22.152H67.9255Z" fill="#F3BE00"/>
<path d="M94.9337 39H99.0377V35.88H101.006V32.328H99.0377V21.72H94.4537L86.8697 32.568V35.88H94.9337V39ZM91.1897 32.328L95.2217 26.232V32.328H91.1897ZM106.616 30C106.616 35.184 108.368 38.928 113.36 38.928C118.352 38.928 120.104 35.184 120.104 30C120.104 24.864 118.352 21.12 113.36 21.12C108.368 21.12 106.616 24.864 106.616 30ZM116.072 30C116.072 32.784 115.784 35.088 113.36 35.088C110.936 35.088 110.648 32.784 110.648 30C110.648 27.312 110.936 24.96 113.36 24.96C115.784 24.96 116.072 27.312 116.072 30ZM134.032 39H138.136V35.88H140.104V32.328H138.136V21.72H133.552L125.968 32.568V35.88H134.032V39ZM130.288 32.328L134.32 26.232V32.328H130.288Z" fill="#F95B5B"/>
</svg>
