<svg width="200" height="56" viewBox="0 0 200 56" fill="none" xmlns="http://www.w3.org/2000/svg">
<path d="M25.7786 29.0885C25.7786 34.5205 29.3346 37.2085 33.8986 37.2085C38.4346 37.2085 42.2426 34.5205 42.2426 29.0885V17.3565H37.4546V29.1165C37.4546 31.4405 36.2506 32.7845 33.9826 32.7845C31.7146 32.7845 30.5666 31.4405 30.5666 29.1165V17.3565H25.7786V29.0885ZM64.0848 31.1605C64.0848 24.5805 54.3688 26.1205 54.3688 22.7045C54.3688 21.4725 55.2368 20.8845 56.3848 20.9125C57.6728 20.9405 58.5688 21.6965 58.6528 22.9565H63.8328C63.6368 19.2045 60.7528 17.0765 56.4688 17.0765C52.3528 17.0765 49.3008 19.1485 49.3008 22.8725C49.2448 29.8445 59.0728 27.8845 59.0728 31.5245C59.0728 32.6725 58.1768 33.3725 56.7768 33.3725C55.4328 33.3725 54.4808 32.6445 54.3408 31.1325H49.2448C49.3848 35.1085 52.6888 37.2085 56.9168 37.2085C61.5088 37.2085 64.0848 34.4645 64.0848 31.1605ZM83.2713 17.3565H71.2313V37.0125H83.2713V33.1765H76.0193V28.8645H82.4313V25.1685H76.0193V21.1925H83.2713V17.3565ZM100.968 23.7405C100.968 25.2805 100.128 26.2045 98.3358 26.2045H95.3678V21.3325H98.3358C100.128 21.3325 100.968 22.2845 100.968 23.7405ZM90.5798 17.3565V37.0125H95.3678V29.5925H96.5158L100.604 37.0125H106.008L101.472 29.2285C104.496 28.3325 105.84 26.0085 105.84 23.5445C105.84 20.1285 103.432 17.3565 98.6158 17.3565H90.5798Z" fill="#FFD201"/>
<path d="M122.089 37.0125H126.877V33.3725H129.173V29.2285H126.877V16.8525H121.529L112.681 29.5085V33.3725H122.089V37.0125ZM117.721 29.2285L122.425 22.1165V29.2285H117.721ZM135.719 26.5125C135.719 32.5605 137.763 36.9285 143.587 36.9285C149.411 36.9285 151.455 32.5605 151.455 26.5125C151.455 20.5205 149.411 16.1525 143.587 16.1525C137.763 16.1525 135.719 20.5205 135.719 26.5125ZM146.751 26.5125C146.751 29.7605 146.415 32.4485 143.587 32.4485C140.759 32.4485 140.423 29.7605 140.423 26.5125C140.423 23.3765 140.759 20.6325 143.587 20.6325C146.415 20.6325 146.751 23.3765 146.751 26.5125ZM167.704 37.0125H172.492V33.3725H174.788V29.2285H172.492V16.8525H167.144L158.296 29.5085V33.3725H167.704V37.0125ZM163.336 29.2285L168.04 22.1165V29.2285H163.336Z" fill="#DADADA"/>
<rect x="4" y="4" width="192" height="47.1378" stroke="url(#paint0_linear)" stroke-width="8"/>
<defs>
<linearGradient id="paint0_linear" x1="200" y1="55.1378" x2="-1.09573e-06" y2="3.97452e-06" gradientUnits="userSpaceOnUse">
<stop stop-color="#FFD201"/>
<stop offset="1" stop-color="#FF9900"/>
</linearGradient>
</defs>
</svg>
