<svg width="13" height="12" viewBox="0 0 13 12" fill="none" xmlns="http://www.w3.org/2000/svg">
<path d="M11.7423 5.55281L0.742276 0.0528059C0.656061 0.00968929 0.559221 -0.00758662 0.463415 0.00305845C0.36761 0.0137035 0.276924 0.0518157 0.202276 0.112806C0.130988 0.172552 0.0777793 0.250999 0.0486309 0.339328C0.0194824 0.427656 0.0155501 0.522365 0.0372762 0.612806L1.36228 5.49781H7.01728V6.49781H1.36228L0.0172762 11.3678C-0.00311056 11.4433 -0.00549032 11.5226 0.0103283 11.5992C0.026147 11.6758 0.0597228 11.7477 0.108356 11.8089C0.156989 11.8702 0.219322 11.9192 0.290343 11.952C0.361364 11.9848 0.439092 12.0005 0.517276 11.9978C0.595547 11.9973 0.672615 11.9785 0.742276 11.9428L11.7423 6.44281C11.8242 6.40085 11.8929 6.3371 11.9409 6.25858C11.9889 6.18007 12.0143 6.08983 12.0143 5.99781C12.0143 5.90578 11.9889 5.81554 11.9409 5.73703C11.8929 5.65851 11.8242 5.59476 11.7423 5.55281Z" fill="white"/>
</svg>
