<svg width="20" height="20" viewBox="0 0 20 20" fill="none" xmlns="http://www.w3.org/2000/svg">
<path d="M16.3889 3.88889H5.83333C5.61232 3.88889 5.40036 3.97668 5.24408 4.13296C5.0878 4.28924 5 4.50121 5 4.72222V18.0556C5 18.2766 5.0878 18.4885 5.24408 18.6448C5.40036 18.8011 5.61232 18.8889 5.83333 18.8889H16.3889C16.6099 18.8889 16.8219 18.8011 16.9781 18.6448C17.1344 18.4885 17.2222 18.2766 17.2222 18.0556V4.72222C17.2222 4.50121 17.1344 4.28924 16.9781 4.13296C16.8219 3.97668 16.6099 3.88889 16.3889 3.88889ZM16.1111 17.7778H6.11111V5H16.1111V17.7778Z" fill="#F3BE00"/>
<path d="M14.4444 1.94445C14.4444 1.72343 14.3566 1.51147 14.2003 1.35519C14.044 1.19891 13.8321 1.11111 13.6111 1.11111H3.0555C2.83449 1.11111 2.62253 1.19891 2.46625 1.35519C2.30997 1.51147 2.22217 1.72343 2.22217 1.94445V15.2778C2.22217 15.4988 2.30997 15.7108 2.46625 15.867C2.62253 16.0233 2.83449 16.1111 3.0555 16.1111H3.33328V2.22223H14.4444V1.94445Z" fill="#F3BE00"/>
</svg>
