<svg width="461" height="457" viewBox="0 0 461 457" fill="none" xmlns="http://www.w3.org/2000/svg">
<g clip-path="url(#clip0)">
<path opacity="0.4" d="M289.098 373.265L217.706 331.254C217.298 331.011 216.961 330.661 216.73 330.24C216.499 329.818 216.383 329.341 216.394 328.859C216.404 328.376 216.542 327.905 216.791 327.494C217.041 327.084 217.393 326.75 217.812 326.526L226.796 321.799C227.188 321.593 227.623 321.491 228.063 321.501C228.504 321.511 228.934 321.633 229.316 321.857L303.106 365.28C303.517 365.521 303.856 365.871 304.089 366.293C304.322 366.714 304.439 367.192 304.428 367.676C304.417 368.16 304.279 368.632 304.028 369.042C303.776 369.453 303.422 369.786 303.001 370.008L296.496 373.44C295.348 374.047 294.068 374.35 292.775 374.319C291.482 374.289 290.218 373.926 289.098 373.265V373.265Z" fill="black" fill-opacity="0.49"/>
<path d="M294.562 366.269L230.965 329.549C225.576 326.438 221.25 318.1 221.25 310.917V133.505C221.25 126.323 225.619 123.025 231.008 126.136L294.605 162.856C299.994 165.967 304.363 174.305 304.363 181.488V358.9C304.32 366.082 299.951 369.38 294.562 366.269Z" fill="url(#paint0_linear)"/>
<path d="M295.659 369.474L300.7 366.924L295.863 358.637L295.659 369.474Z" fill="#9B3B3B"/>
<path d="M220.221 127.904L224.863 125.473L223.927 132.307L220.221 127.904Z" fill="#7C2F2F"/>
<path d="M290.508 368.301L226.911 331.581C221.522 328.47 217.153 320.123 217.153 312.94V135.537C217.153 128.354 221.522 125.048 226.911 128.159L290.508 164.879C295.897 167.99 300.266 176.337 300.266 183.519V360.923C300.3 368.105 295.897 371.412 290.508 368.301Z" fill="#B4BBC6"/>
<path d="M299.586 183.97V361.374C299.586 368.565 295.226 371.863 289.837 368.752L264.889 354.353L257.137 349.873L226.231 332.023C220.842 328.912 216.482 320.574 216.482 313.383V135.988C216.482 128.797 220.842 125.507 226.231 128.61L289.837 165.33C295.2 168.441 299.586 176.779 299.586 183.97Z" fill="#20232D"/>
<path d="M295.005 182.168V354.956C295.005 359.308 291.953 361.076 288.205 358.892L268.323 347.417L266.564 346.405L265.977 346.057L261.659 343.6L249.215 336.435L244.056 333.46L241.982 332.261L227.889 324.127C224.123 321.951 221.089 316.655 221.089 312.295V139.481C221.089 135.129 224.14 133.361 227.889 135.537L252.7 149.876V149.944C252.802 151.79 253.338 153.585 254.264 155.185C255.19 156.784 256.48 158.143 258.03 159.15C260.971 160.85 263.351 159.465 263.351 156.081C263.351 156.081 263.351 156.031 263.351 156.005L288.188 170.345C291.953 172.521 295.005 177.85 295.005 182.168Z" fill="white"/>
<path d="M260.166 157.897C260.958 157.442 260.963 155.963 260.177 154.595C259.391 153.227 258.111 152.487 257.319 152.942C256.526 153.398 256.521 154.876 257.308 156.244C258.094 157.612 259.374 158.352 260.166 157.897Z" fill="#2B303F"/>
<path opacity="0.1" d="M258.038 155.869C257.792 155.709 257.587 155.493 257.439 155.239C257.292 154.985 257.206 154.7 257.188 154.407C257.188 153.863 257.571 153.65 258.038 153.914C258.286 154.075 258.492 154.292 258.64 154.547C258.787 154.803 258.872 155.09 258.888 155.384C258.88 155.92 258.506 156.141 258.038 155.869Z" fill="white"/>
<path d="M302.17 207.311C301.652 207.617 301.227 207.311 301.227 206.606V199.04C301.232 198.688 301.32 198.343 301.484 198.031C301.648 197.72 301.883 197.451 302.17 197.247V197.247C302.689 196.941 303.105 197.247 303.105 197.952V205.518C303.101 205.869 303.014 206.214 302.852 206.526C302.689 206.838 302.456 207.107 302.17 207.311V207.311Z" fill="#E3E5E9"/>
<path d="M302.17 219.704C301.652 220.01 301.227 219.704 301.227 218.999V211.434C301.232 211.082 301.32 210.736 301.484 210.424C301.648 210.113 301.883 209.844 302.17 209.64V209.64C302.689 209.334 303.105 209.64 303.105 210.346V217.911C303.101 218.262 303.014 218.607 302.852 218.919C302.689 219.231 302.456 219.5 302.17 219.704V219.704Z" fill="#E3E5E9"/>
<path d="M286.448 215.533L231.338 184.698C230.484 184.108 229.786 183.33 229.299 182.43C228.812 181.529 228.551 180.53 228.536 179.514V164.804C228.536 162.809 229.787 161.886 231.338 162.756L286.448 193.582C287.3 194.177 287.997 194.956 288.484 195.857C288.971 196.759 289.233 197.758 289.25 198.776V213.477C289.25 215.481 287.989 216.394 286.448 215.533Z" fill="#FFD600"/>
<path d="M237.208 177.956C238.471 177.23 238.479 174.874 237.226 172.694C235.972 170.514 233.933 169.334 232.67 170.06C231.408 170.786 231.4 173.141 232.653 175.322C233.906 177.502 235.945 178.682 237.208 177.956Z" fill="#58AFFF"/>
<path d="M278.2 199.957L239.245 177.466V173.42L278.2 195.911V199.957Z" fill="#F1F2F8"/>
<path d="M258.506 195.26L239.245 184.134V180.096L258.506 191.214V195.26Z" fill="#F1F2F8"/>
<path d="M285.841 244.069L230.731 213.234C229.877 212.643 229.179 211.866 228.692 210.966C228.205 210.065 227.944 209.066 227.929 208.05V193.339C227.929 191.345 229.18 190.422 230.731 191.292L285.841 222.118C286.693 222.712 287.39 223.491 287.877 224.393C288.363 225.295 288.626 226.294 288.643 227.311V242.013C288.643 244.016 287.382 244.93 285.841 244.069Z" fill="#E1DBF0"/>
<path d="M236.601 207.099C237.864 206.373 237.872 204.017 236.618 201.837C235.365 199.656 233.326 198.477 232.063 199.203C230.8 199.928 230.793 202.284 232.046 204.465C233.299 206.645 235.338 207.824 236.601 207.099Z" fill="#8C50FF"/>
<path d="M277.593 228.493L238.637 206.002V201.956L277.593 224.447V228.493Z" fill="#B1B3C9"/>
<path d="M257.898 223.796L238.637 212.67V208.632L257.898 219.75V223.796Z" fill="#B1B3C9"/>
<path d="M230.605 242.303L282.931 272C284.412 272.852 285.607 271.949 285.607 270.008V255.764C285.593 254.778 285.343 253.809 284.878 252.935C284.413 252.061 283.746 251.307 282.931 250.732L230.605 221.035C229.124 220.184 227.929 221.086 227.929 223.028V237.28C227.944 238.265 228.195 239.232 228.659 240.104C229.124 240.977 229.791 241.73 230.605 242.303V242.303Z" fill="#E1DBF0"/>
<path d="M235.994 235.027C237.257 234.302 237.264 231.946 236.011 229.765C234.758 227.585 232.719 226.406 231.456 227.131C230.193 227.857 230.186 230.213 231.439 232.393C232.692 234.574 234.731 235.753 235.994 235.027Z" fill="#FF5050"/>
<path d="M238.439 234.991L274.768 255.969V251.923L238.439 230.945V234.991Z" fill="#808BA0"/>
<path d="M238.439 241.06L272.286 260.601V256.555L238.439 237.014V241.06Z" fill="#808BA0"/>
<path d="M283.019 346.15L231.365 316.315C230.473 315.732 229.731 314.947 229.198 314.024C228.665 313.102 228.356 312.066 228.296 311.002V303.93C228.296 301.975 229.673 301.185 231.365 302.162L283.019 331.98C283.91 332.565 284.651 333.35 285.182 334.272C285.714 335.195 286.021 336.23 286.079 337.293V344.365C286.079 346.32 284.702 347.11 283.019 346.15ZM231.365 303.174C230.158 302.477 229.172 303.038 229.172 304.432V311.512C229.214 312.272 229.435 313.011 229.816 313.67C230.197 314.329 230.727 314.888 231.365 315.303L283.019 345.121C284.226 345.818 285.204 345.257 285.204 343.863V336.8C285.163 336.041 284.944 335.302 284.565 334.643C284.185 333.985 283.656 333.425 283.019 333.009L231.365 303.174Z" fill="#E9EAF2"/>
<path d="M233.405 313.952L232.53 313.45V306.71L233.405 307.211V313.952Z" fill="#E9EAF2"/>
<path opacity="0.4" d="M388.658 288.443C404.919 288.443 418.102 280.832 418.102 271.443C418.102 262.055 404.919 254.443 388.658 254.443C372.396 254.443 359.214 262.055 359.214 271.443C359.214 280.832 372.396 288.443 388.658 288.443Z" fill="black" fill-opacity="0.49"/>
<path d="M404.85 267.1C402.801 268.8 399.75 267.245 399.631 267.398C397.228 269.629 394.705 271.729 392.074 273.688C390.799 274.691 388.81 276.034 389.167 277.938C389.813 281.388 395.338 280.326 397.421 279.272C399.503 278.218 401.203 276.467 403.175 275.243C404.586 274.393 405.972 273.917 406.193 272.141C406.337 271.087 405.232 267.049 404.85 267.1Z" fill="#20232D"/>
<path d="M406.176 271.443C405.912 273.143 404.544 273.611 403.15 274.478C401.144 275.719 399.376 277.521 397.293 278.575C395.372 279.544 390.57 280.513 389.219 278.048C389.95 281.38 395.372 280.334 397.438 279.289C399.503 278.243 401.22 276.484 403.192 275.26C404.603 274.41 405.989 273.934 406.21 272.158C406.222 271.919 406.21 271.68 406.176 271.443V271.443Z" fill="#9C73FF"/>
<path d="M387.102 260.487C385.053 262.187 381.467 260.334 381.322 260.487C379.186 262.644 376.93 264.679 374.565 266.582C373.29 267.585 371.301 268.928 371.666 270.832C372.304 274.283 377.829 273.22 379.911 272.166C381.994 271.112 383.702 269.361 385.674 268.137C387.076 267.287 388.462 266.811 388.683 265.035C388.81 263.981 387.467 260.445 387.102 260.487Z" fill="#20232D"/>
<path d="M388.615 264.55C388.351 266.25 386.983 266.717 385.589 267.584C383.583 268.834 381.815 270.628 379.733 271.682C377.812 272.659 373.009 273.628 371.658 271.163C372.389 274.486 377.82 273.441 379.877 272.396C381.934 271.35 383.659 269.599 385.64 268.366C387.042 267.516 388.428 267.04 388.649 265.264C388.661 265.025 388.649 264.786 388.615 264.55V264.55Z" fill="#9C73FF"/>
<path d="M404.935 191.45C404.842 194.553 403.873 208 403.448 215.114C403.023 222.229 402.912 230.958 402.912 230.958C402.912 230.958 404.145 236.143 404.935 242.238C405.726 248.332 404.935 267.567 404.935 267.567C404.153 268.072 403.243 268.34 402.313 268.34C401.383 268.34 400.472 268.072 399.69 267.567C399.69 267.567 396.418 252.174 394.897 245.238C393.375 238.302 393.12 234.307 392.347 230.006C391.395 224.804 389.338 200.528 389.338 200.528L388.488 200.579L386.312 228C386.987 230.021 387.452 232.106 387.697 234.222C388.292 238.685 387.068 261.141 387.068 261.141C386.193 261.627 385.2 261.862 384.2 261.82C383.199 261.778 382.23 261.461 381.399 260.903C381.399 260.903 375.924 231.154 375.924 226.64C375.924 223.648 376.435 184.14 376.435 184.14L404.935 191.45Z" fill="#8C50FF"/>
<path d="M397.515 131.636C397.515 131.636 397.166 138.385 397.319 138.988C397.472 139.592 400.413 141.538 401.272 142.269C402.13 143 396.605 148.432 393.919 149.664C391.233 150.897 382.716 147.65 382.572 143.468C382.427 139.286 384.025 135.775 385.334 135.588C386.643 135.401 397.515 131.636 397.515 131.636Z" fill="#FFCEA9"/>
<path d="M381.228 137.662C381.228 137.662 379.401 134.865 372.728 150.412C366.056 165.958 361.942 170.038 358.95 173.906C356.247 177.425 354.913 171.832 354.913 171.832C354.913 171.832 357.063 169.12 355.27 169.12C354.267 169.18 352.864 171.245 352.864 171.245L355.151 174.9L361.101 177.918C361.101 177.918 368.385 171.22 370.739 167.089C373.289 163.833 377.106 157.373 377.106 157.373L381.228 137.662Z" fill="#FFCEA9"/>
<path d="M352.889 174.399C352.821 174.348 351.045 172.283 351.045 172.283C351.045 172.283 349.982 171.356 351.138 171.288C352.294 171.22 356.417 171.212 356.417 171.212C356.838 171.171 357.26 171.289 357.599 171.543C358.117 171.951 364.092 179.516 364.092 179.516C364.092 179.516 364.356 179.975 363.583 180.026C362.809 180.077 357.802 180.026 357.802 180.026L352.889 174.399Z" fill="#20232D"/>
<path d="M352.405 173.124C352.405 173.124 350.645 172.792 351.053 174.484C351.461 176.175 353.986 177.927 353.986 177.927L356.621 180.137C356.943 180.343 357.318 180.453 357.701 180.453C358.083 180.453 358.458 180.343 358.78 180.137C359.46 179.712 360.412 178.556 359.367 177.459C358.321 176.362 357.386 173.957 354.717 174.059C354.717 174.059 354.572 173.421 353.017 173.209" fill="#FFCEA9"/>
<path d="M398.271 140.152C398.271 140.152 393.367 147.445 386.533 148.134C384.382 146.009 384.187 138.452 387.17 136.038C387.17 136.038 384.425 133.82 382.546 134.254C380.323 135.454 378.622 137.434 377.769 139.812C376.511 143.663 375.805 148.1 375.916 155.265C376.026 162.431 375.916 184.31 375.916 184.31C375.916 184.31 376.885 188.943 383.065 192.385C389.244 195.828 393.8 196.159 398.05 195.182C401.51 194.374 404.366 193.159 405.556 190.651C405.25 185.628 403.006 172.529 403.856 166.214C404.706 159.898 406.023 155.164 406.406 150.063C406.788 144.963 405.726 145.057 403.167 143.263C401.613 142.109 399.977 141.069 398.271 140.152V140.152Z" fill="#2E2C2C"/>
<path d="M401.008 194.416C402.028 193.277 403.779 186.962 404.782 182.975C405.75 178.5 405.946 173.892 405.36 169.35C404.459 163.91 401.96 156.379 401.254 153.26C400.549 150.14 401.484 148.814 402.87 147.556C404.493 146.077 406.916 146.519 408.48 150.854C410.52 156.85 411.892 163.053 412.568 169.35C412.934 174.04 412.524 178.759 411.353 183.315C410.307 187.565 408.803 190.642 406.814 194.535C406.278 195.589 405.054 198.556 404.264 200.698C403.473 202.84 400.082 195.453 401.008 194.416Z" fill="#FFCEA9"/>
<path d="M382.232 121.572C383.039 116.327 386.813 112.357 392.219 112.655C394.393 112.769 396.476 113.563 398.174 114.924C399.873 116.286 401.102 118.146 401.687 120.243C402.271 122.339 402.184 124.567 401.435 126.611C400.686 128.655 399.315 130.412 397.514 131.636C397.32 132.428 397.035 133.195 396.664 133.922C394.752 136.158 388.972 137.543 387.314 137.322C385.181 137.016 384.033 136.124 383.013 133.795C381.228 129.664 381.79 124.164 382.232 121.572Z" fill="#FFCEA9"/>
<path d="M397.514 131.636L397.021 127.063C397.021 127.063 400.753 117.39 391.921 119.243C386.09 120.475 384.628 121.002 382.86 117.092C381.092 113.182 387.34 109.672 394.76 110.649C397.326 110.905 399.701 112.117 401.413 114.045C403.126 115.973 404.049 118.475 404 121.053C403.762 123.935 402.997 129.757 397.514 131.636Z" fill="#3A2C6D"/>
<path d="M412.619 157.875C412.619 157.875 407.808 162.669 402.104 161.275C401.254 160.723 399.333 149.52 399.333 149.52C399.333 149.52 399.333 143.314 404.093 143.476C408.853 143.637 412.619 157.875 412.619 157.875Z" fill="#242222"/>
<path d="M375.95 151.585C375.95 151.585 372.83 151.976 371.793 150.514C371.98 147.964 376.137 134.959 382.589 134.254C381.017 135.674 379.66 137.314 378.56 139.124C376.256 142.941 375.95 151.585 375.95 151.585Z" fill="#242222"/>
<path opacity="0.4" d="M110.393 449C126.626 449 139.786 441.404 139.786 432.034C139.786 422.664 126.626 415.068 110.393 415.068C94.1597 415.068 81 422.664 81 432.034C81 441.404 94.1597 449 110.393 449Z" fill="black" fill-opacity="0.49"/>
<path d="M88.3532 304.95C88.0217 307.806 84.6217 320.123 85.3527 324.348C86.0837 328.572 97.7202 335.627 97.7202 335.627L99.3352 328.402L92.8837 322.087L94.6262 310.118L88.3532 304.95Z" fill="#A6693B"/>
<path d="M97.8385 292.804C96.7055 292.283 95.4208 292.195 94.2274 292.556C93.0339 292.918 92.0143 293.705 91.3615 294.767C89.6615 297.606 87.868 307.33 87.7065 308.996C87.7065 308.996 90.112 312.311 93.716 311.759L97.8385 292.804Z" fill="#EDEDED"/>
<path d="M111.133 430.173C113.665 430.873 116.371 430.546 118.664 429.263C120.483 429.323 130.334 425.107 131.669 428.643C132.842 431.745 128.575 434.593 126.297 435.171C121.324 436.369 117.644 438.851 115.646 439.276C114.159 439.59 112.246 439.794 111.039 438.621C109.62 437.219 109.739 432 111.133 430.173Z" fill="#2B2A30"/>
<path d="M115.646 438.417C117.644 437.992 121.324 435.51 126.297 434.312C128.209 433.844 131.499 431.762 131.83 429.263C132.272 432.119 128.43 434.652 126.297 435.213C121.324 436.411 117.644 438.893 115.646 439.318C114.159 439.633 112.246 439.837 111.039 438.664C110.732 438.328 110.51 437.922 110.393 437.482C111.135 438.036 111.997 438.409 112.909 438.572C113.821 438.734 114.758 438.681 115.646 438.417V438.417Z" fill="#0059E2"/>
<path d="M95.161 422.999C97.6932 423.699 100.399 423.372 102.692 422.089C104.502 422.149 114.354 417.932 115.697 421.468C116.87 424.571 112.603 427.419 110.325 427.997C105.352 429.204 101.663 431.677 99.666 432.102C98.1785 432.417 96.266 432.621 95.0675 431.448C93.6395 430.045 93.75 424.852 95.161 422.999Z" fill="#2B2A30"/>
<path d="M99.7 431.243C101.698 430.818 105.387 428.336 110.359 427.138C112.263 426.67 115.561 424.588 115.893 422.089C116.335 424.945 112.493 427.478 110.359 428.039C105.387 429.246 101.698 431.719 99.7 432.144C98.2125 432.459 96.3 432.663 95.1015 431.49C94.7949 431.152 94.5708 430.748 94.447 430.308C95.1894 430.862 96.0509 431.235 96.9628 431.398C97.8748 431.56 98.8121 431.507 99.7 431.243V431.243Z" fill="#0059E2"/>
<path d="M94.9655 396.24C95.3866 392.583 96.1464 388.972 97.235 385.454C97.235 385.454 96.5635 376.146 96.2235 367.315C95.8325 357.302 92.356 348.487 95.1015 340.489L126.05 347.365C126.05 347.365 124.18 387.315 123.763 392.135C123.537 395.898 123.074 399.642 122.378 403.347C120.967 411.099 118.672 429.535 118.672 429.535C115.408 431.439 111.115 430.385 111.115 430.385C111.115 430.385 111.353 407.061 111.566 401.485C111.821 394.685 112.025 395.186 112.025 395.186L111.005 378.186L110.342 369.737C110.342 369.737 109.492 375.942 108.931 381.484C108.438 386.312 107.231 390.681 105.973 399.674C104.842 407.478 103.006 423.152 103.006 423.152C99.7425 425.047 95.3055 423.475 95.3055 423.475C95.3055 423.475 94.0815 403.006 94.9655 396.24Z" fill="#548EE7"/>
<path d="M98.9952 292.974C101.35 293.093 103.101 293.696 103.39 292.974C103.645 291.759 103.826 290.53 103.934 289.293C103.662 288.605 103.424 287.874 103.424 287.874C100.474 286.055 99.5392 282.859 99.1737 279.145C98.5107 272.787 101.945 267.244 108.303 266.556C114.253 265.927 118.681 270.134 119.854 275.906C120.483 278.753 121.741 284.134 120.041 288.817C119.089 291.435 117.865 293.518 116.641 293.917C115.458 293.88 114.277 293.775 113.105 293.603V293.603C113.105 293.603 112.791 295.362 112.57 296.501C112.349 297.64 112.442 298.201 114.695 299.621C116.947 301.04 111.295 303.871 107.58 303.59C103.866 303.31 99.7092 301.04 98.5617 298.677C97.2697 296.042 97.3802 292.897 98.9952 292.974Z" fill="#A6693B"/>
<path d="M102.879 293.323C102.233 294.955 103.89 296.943 108.31 298.329C112.73 299.714 113.13 297.929 113.13 297.929C113.13 297.929 119.607 300.888 121.715 302.358C124.375 304.211 125.548 309.583 125.905 318.644C126.322 329.125 126.356 344.679 126.007 347.365C126.007 347.365 121.052 352.304 114.702 351.785C108.353 351.267 97.7025 345.648 95.093 341.313C95.161 332.116 96.2405 330.62 94.753 325.325C91.353 313.204 89.551 308.24 91.2 300.182C92.5685 293.544 94.481 292.719 97.15 292.778C99.0678 292.861 100.98 293.042 102.879 293.323V293.323Z" fill="#F4F4F4"/>
<path d="M135.876 327.314C130.674 328.623 129.45 325.342 128.762 322.622C127.113 316.034 126.212 310.093 124.979 306.353C123.526 301.95 122.004 301.253 119.879 300.403C117.329 299.4 115.204 301.525 116.037 307.135C117.032 313.765 118.332 318.423 120.806 326.277C121.46 328.325 122.914 331.963 125.056 333.723C127.742 335.899 131.788 335.805 137.908 334.284C140.517 333.629 143.382 332.074 148.32 329.77C149.663 329.15 150.7 328.725 153.25 327.535C155.806 326.387 158.045 324.637 159.778 322.435C161.113 320.505 160.875 319.273 160.628 318.839C160.382 318.406 160.093 318.729 159.379 319.536C158.351 320.911 157.08 322.086 155.63 323.004C155.63 323.004 157.279 321.304 158.18 320.199C158.977 319.221 159.64 318.14 160.152 316.986C160.62 315.856 159.651 314.326 158.911 315.133C158.172 315.941 157.823 316.748 156.48 318.363C155.754 319.22 154.929 319.987 154.024 320.65C154.858 319.519 155.6 318.322 156.242 317.071C157.092 315.329 154.245 316.221 152.613 317.921C151.423 319.154 150.411 319.868 150.377 319.528C150.343 319.188 148.031 321.678 146.85 322.928C145.668 324.177 140.832 326.064 135.876 327.314Z" fill="#A6693B"/>
<path d="M117.933 299.493C121.409 298.975 123.883 300.539 125.404 305.809C126.926 311.079 128.014 315.405 128.014 315.405C126.638 317.391 124.555 318.775 122.191 319.273C118.026 320.276 116.53 318.295 116.53 318.295C116.53 318.295 115.374 312.77 114.66 309.013C113.946 305.256 113.632 300.122 117.933 299.493Z" fill="#EDEDED"/>
<path d="M119.218 275.263C119.218 275.263 124.709 266.907 112.809 265.207C104.224 263.983 98.7077 269.5 98.0702 275.484C97.4582 281.204 100.977 287.137 103.527 289.5C104.768 289.942 107.437 290.197 110.948 288.599C111.088 287.042 111.142 285.479 111.109 283.916C111.109 283.916 106.927 275.11 119.218 275.263Z" fill="#302A2A"/>
<path d="M147.997 320.743C147.997 320.743 146.646 318.287 147.504 317.675C148.363 317.063 149.587 319.375 149.833 320.267C150.08 321.16 149.74 319.995 149.74 319.995C149.74 319.995 148.813 317.216 149.417 316.68C150.02 316.145 150.828 317.335 151.635 319.077C152.443 320.82 151.831 318.933 151.831 318.933C151.831 318.933 150.496 316.145 151.066 315.754C151.831 315.244 153.089 316.893 153.837 318.38C154.585 319.868 152.834 321.636 152.834 321.636L147.997 320.743Z" fill="#A6693B"/>
<path d="M150.606 325.138L145.6 322.222C145.166 321.976 145.226 321.551 145.719 321.262L157.908 314.224C158.166 314.078 158.454 313.996 158.75 313.984C159.045 313.973 159.34 314.031 159.608 314.156L164.657 317.071C165.082 317.318 165.031 317.751 164.538 318.032L152.272 325.07C152.02 325.212 151.737 325.292 151.448 325.304C151.158 325.316 150.87 325.259 150.606 325.138V325.138Z" fill="#B1B4C4"/>
<path d="M145.268 321.806V321.338L145.812 321.542L145.268 321.806Z" fill="#B1B4C4"/>
<path d="M164.869 317.471V317.029L164.436 317.301L164.869 317.471Z" fill="#B1B4C4"/>
<path d="M150.606 324.747L145.6 321.831C145.166 321.585 145.226 321.151 145.719 320.871L157.865 313.85C158.122 313.702 158.411 313.619 158.707 313.607C159.003 313.595 159.298 313.655 159.565 313.782L164.614 316.697C165.039 316.944 164.988 317.369 164.495 317.658L152.306 324.696C152.048 324.839 151.758 324.918 151.463 324.927C151.167 324.936 150.874 324.874 150.606 324.747V324.747Z" fill="#616E84"/>
<path d="M146.42 323.625C146.445 323.611 146.444 323.563 146.418 323.519C146.392 323.474 146.352 323.449 146.327 323.463C146.303 323.477 146.304 323.525 146.33 323.569C146.355 323.614 146.396 323.639 146.42 323.625Z" fill="#757B89"/>
<path d="M146.401 322.57C146.425 322.556 146.424 322.508 146.398 322.463C146.373 322.419 146.332 322.394 146.307 322.408C146.283 322.422 146.284 322.47 146.31 322.514C146.336 322.559 146.377 322.584 146.401 322.57Z" fill="#757B89"/>
<path d="M146.645 322.721C146.67 322.706 146.669 322.659 146.643 322.614C146.617 322.569 146.576 322.545 146.552 322.559C146.527 322.573 146.529 322.62 146.554 322.665C146.58 322.71 146.621 322.735 146.645 322.721Z" fill="#757B89"/>
<path d="M146.893 322.851C146.917 322.837 146.916 322.789 146.89 322.745C146.864 322.7 146.824 322.675 146.799 322.689C146.775 322.703 146.776 322.751 146.802 322.796C146.828 322.84 146.868 322.865 146.893 322.851Z" fill="#757B89"/>
<path d="M148.977 324.062C149.001 324.048 149 324 148.974 323.956C148.948 323.911 148.908 323.886 148.883 323.9C148.859 323.914 148.86 323.962 148.886 324.007C148.912 324.051 148.952 324.076 148.977 324.062Z" fill="#757B89"/>
<path d="M149.22 324.2C149.244 324.186 149.243 324.138 149.217 324.094C149.192 324.049 149.151 324.024 149.127 324.038C149.102 324.052 149.103 324.1 149.129 324.145C149.155 324.189 149.196 324.214 149.22 324.2Z" fill="#757B89"/>
<path d="M149.46 324.343C149.485 324.329 149.483 324.282 149.458 324.237C149.432 324.192 149.391 324.167 149.367 324.181C149.342 324.195 149.343 324.243 149.369 324.288C149.395 324.333 149.436 324.357 149.46 324.343Z" fill="#757B89"/>
<path d="M149.703 324.481C149.728 324.467 149.727 324.419 149.701 324.375C149.675 324.33 149.634 324.305 149.61 324.319C149.586 324.333 149.587 324.381 149.612 324.426C149.638 324.47 149.679 324.495 149.703 324.481Z" fill="#757B89"/>
<path d="M148.226 323.667L147.555 323.285C147.531 323.267 147.512 323.244 147.499 323.217C147.486 323.191 147.479 323.162 147.478 323.132C147.478 323.081 147.478 323.055 147.555 323.081L148.226 323.463C148.25 323.48 148.269 323.501 148.282 323.526C148.296 323.552 148.303 323.58 148.303 323.608C148.303 323.667 148.269 323.693 148.226 323.667Z" fill="#757B89"/>
<path d="M163.339 318.576L162.719 318.933C162.719 318.933 162.651 318.933 162.651 318.882C162.653 318.856 162.66 318.83 162.671 318.807C162.683 318.784 162.699 318.763 162.719 318.746L163.339 318.389C163.339 318.389 163.416 318.389 163.416 318.44C163.416 318.467 163.409 318.494 163.395 318.518C163.382 318.542 163.363 318.562 163.339 318.576V318.576Z" fill="#757B89"/>
<path d="M162.387 319.128L161.767 319.485C161.767 319.485 161.699 319.485 161.699 319.434C161.698 319.408 161.704 319.382 161.716 319.358C161.728 319.334 161.745 319.314 161.767 319.298L162.387 318.941C162.387 318.941 162.464 318.941 162.464 318.992C162.463 319.02 162.456 319.046 162.442 319.07C162.429 319.093 162.41 319.114 162.387 319.128Z" fill="#757B89"/>
<path d="M150.606 324.679L145.6 321.763C145.166 321.517 145.226 321.083 145.719 320.794L157.908 313.757C158.166 313.611 158.454 313.529 158.75 313.517C159.045 313.505 159.34 313.564 159.608 313.689L164.657 316.604C165.082 316.85 165.031 317.284 164.538 317.564L152.349 324.602C152.087 324.758 151.791 324.846 151.487 324.86C151.183 324.873 150.881 324.811 150.606 324.679V324.679Z" fill="#20232D"/>
<path d="M164.037 316.723L162.073 315.55C161.942 315.619 161.796 315.654 161.648 315.654C161.5 315.654 161.354 315.619 161.223 315.55C160.985 315.414 160.985 315.201 161.223 315.065L159.26 313.926C159.09 313.843 158.904 313.799 158.716 313.799C158.527 313.799 158.341 313.843 158.172 313.926L146.271 320.777C145.974 320.956 145.974 321.236 146.271 321.406L151.057 324.169C151.225 324.253 151.409 324.296 151.597 324.296C151.784 324.296 151.969 324.253 152.137 324.169L164.037 317.309C164.343 317.173 164.343 316.893 164.037 316.723Z" fill="#2B303F"/>
<path opacity="0.5" d="M164.037 316.723L162.073 315.55C161.942 315.619 161.796 315.654 161.648 315.654C161.5 315.654 161.354 315.619 161.223 315.55C160.985 315.414 160.985 315.201 161.223 315.065L159.26 313.926C159.09 313.843 158.904 313.799 158.716 313.799C158.527 313.799 158.341 313.843 158.172 313.926L146.271 320.777C145.974 320.956 145.974 321.236 146.271 321.406L151.057 324.169C151.225 324.253 151.409 324.296 151.597 324.296C151.784 324.296 151.969 324.253 152.137 324.169L164.037 317.309C164.343 317.173 164.343 316.893 164.037 316.723Z" fill="url(#paint1_linear)"/>
<path d="M161.512 315.541C161.639 315.541 161.741 315.484 161.741 315.414C161.741 315.344 161.639 315.286 161.512 315.286C161.385 315.286 161.283 315.344 161.283 315.414C161.283 315.484 161.385 315.541 161.512 315.541Z" fill="#2B303F"/>
<path opacity="0.1" d="M161.444 315.456C161.444 315.456 161.444 315.397 161.444 315.38C161.464 315.367 161.488 315.36 161.512 315.36C161.536 315.36 161.56 315.367 161.58 315.38C161.58 315.38 161.58 315.431 161.58 315.456C161.536 315.474 161.488 315.474 161.444 315.456Z" fill="white"/>
<path d="M158.452 323.973C158.452 323.973 161.121 321.568 161.002 318.38C160.84 316.162 159.497 317.76 159.497 317.76L158.146 320.208C157.476 321.112 156.602 321.846 155.596 322.35C154.649 322.441 153.707 322.58 152.774 322.766C151.116 323.089 149.467 325.163 149.467 325.163L151.55 326.804L158.452 323.973Z" fill="#A6693B"/>
<path d="M146.068 211.323L96.929 182.95C96.4569 182.625 95.9175 182.41 95.3509 182.322C94.7844 182.233 94.2052 182.274 93.6565 182.44C93.4467 182.527 93.2495 182.641 93.07 182.78L87.5875 185.916L91.8375 190.906V211.391C91.9329 213.163 92.4444 214.887 93.3304 216.425C94.2165 217.962 95.4522 219.269 96.9375 220.239L112.237 229.853L116.394 239.381L112.016 246.802L118.111 243.317L123.899 236.594L142.37 246.598L143.365 252.548L149.587 248.995L149.756 248.893H149.816C150.291 248.51 150.664 248.015 150.901 247.453C151.138 246.891 151.233 246.279 151.176 245.672V220.171C151.08 218.399 150.567 216.674 149.679 215.137C148.792 213.599 147.554 212.293 146.068 211.323V211.323Z" fill="#58AFFF"/>
<path d="M139.981 214.808L90.843 186.443C88.021 184.811 85.743 186.129 85.743 189.385V214.885C85.8384 216.656 86.3499 218.381 87.2359 219.918C88.122 221.455 89.3577 222.762 90.843 223.733L106.143 233.355L112.016 246.811L117.805 240.087L139.973 252.106C142.795 253.73 145.073 252.412 145.073 249.157V223.657C144.979 221.885 144.468 220.162 143.584 218.624C142.699 217.087 141.465 215.78 139.981 214.808V214.808Z" fill="#548EE7"/>
<path d="M424.442 53.121L375.202 24.697C374.73 24.3689 374.189 24.1519 373.621 24.0621C373.053 23.9723 372.472 24.0121 371.921 24.1785V24.1785C371.709 24.2616 371.512 24.3762 371.335 24.5185L365.844 27.6635L370.094 32.653V53.189C370.188 54.9633 370.699 56.6903 371.585 58.2304C372.471 59.7706 373.707 61.0806 375.193 62.0545L390.536 71.6935L394.701 81.239L390.323 88.6765L396.435 85.2L402.232 78.4595L420.728 88.4895L421.731 94.4395L427.961 90.8695L428.131 90.776H428.191C428.669 90.3948 429.044 89.9008 429.283 89.3383C429.522 88.7759 429.617 88.1629 429.559 87.5545V62.0545C429.473 60.267 428.965 58.5254 428.075 56.9725C427.186 55.4196 425.941 54.0997 424.442 53.121V53.121Z" fill="#8C50FF"/>
<path opacity="0.2" d="M424.442 53.121L375.202 24.697C374.73 24.3689 374.189 24.1519 373.621 24.0621C373.053 23.9723 372.472 24.0121 371.921 24.1785V24.1785C371.709 24.2616 371.512 24.3762 371.335 24.5185L365.844 27.6635L370.094 32.653V53.189C370.188 54.9633 370.699 56.6903 371.585 58.2304C372.471 59.7706 373.707 61.0806 375.193 62.0545L390.536 71.6935L394.701 81.239L390.323 88.6765L396.435 85.2L402.232 78.4595L420.728 88.4895L421.731 94.4395L427.961 90.8695L428.131 90.776H428.191C428.669 90.3948 429.044 89.9008 429.283 89.3383C429.522 88.7759 429.617 88.1629 429.559 87.5545V62.0545C429.473 60.267 428.965 58.5254 428.075 56.9725C427.186 55.4196 425.941 54.0997 424.442 53.121V53.121Z" fill="black"/>
<path d="M418.331 56.6145L369.099 28.1905C366.277 26.5585 363.999 27.8845 363.999 31.1485V56.6485C364.094 58.4228 364.605 60.1498 365.491 61.6899C366.377 63.2301 367.613 64.5401 369.099 65.514L384.45 75.187L390.341 88.6765L396.138 81.936L418.34 93.972C421.17 95.604 423.44 94.2865 423.44 91.0225V65.5225C423.351 63.74 422.842 62.0037 421.954 60.4555C421.066 58.9073 419.825 57.5911 418.331 56.6145V56.6145Z" fill="#8C50FF"/>
<path d="M380.196 55.4634C381.574 54.6677 381.574 52.088 380.196 49.7016C378.818 47.3152 376.584 46.0256 375.206 46.8213C373.828 47.617 373.828 50.1967 375.205 52.5831C376.583 54.9695 378.817 56.2591 380.196 55.4634Z" fill="white"/>
<path d="M396.027 64.0617C397.412 63.266 397.417 60.6775 396.039 58.2801C394.661 55.8827 392.422 54.5842 391.038 55.38C389.653 56.1757 389.648 58.7642 391.025 61.1616C392.403 63.559 394.643 64.8574 396.027 64.0617Z" fill="white"/>
<path d="M409.4 72.3333C410.778 71.5376 410.778 68.9579 409.401 66.5715C408.023 64.1851 405.789 62.8955 404.41 63.6912C403.032 64.4869 403.032 67.0666 404.41 69.453C405.787 71.8394 408.022 73.129 409.4 72.3333Z" fill="white"/>
<path d="M339.808 106.331C339.808 100.381 335.618 93.0965 330.458 90.113C327.704 88.5235 325.239 88.481 323.531 89.671L320.42 91.4305L321.746 91.9575C321.29 93.0885 321.067 94.2999 321.091 95.519C321.091 101.469 325.282 108.745 330.441 111.737C331.237 112.209 332.095 112.567 332.991 112.799V114.661L337.003 112.4C338.771 111.388 339.808 109.297 339.808 106.331Z" fill="#BD7202"/>
<path d="M333.633 114.384C337.288 112.274 337.286 105.429 333.629 99.0948C329.972 92.7607 324.045 89.3366 320.39 91.4467C316.735 93.5569 316.737 100.402 320.394 106.736C324.05 113.07 329.978 116.494 333.633 114.384Z" fill="#FFA800"/>
<path d="M324.259 99.9859C324.779 99.6854 324.778 98.7102 324.257 97.8077C323.736 96.9052 322.892 96.4171 322.372 96.7175C321.851 97.0179 321.852 97.9932 322.373 98.8957C322.894 99.7982 323.738 100.286 324.259 99.9859Z" fill="#DC6A00"/>
<path d="M331.518 104.167C332.039 103.867 332.038 102.892 331.517 101.989C330.996 101.087 330.152 100.599 329.631 100.899C329.111 101.2 329.111 102.175 329.633 103.077C330.154 103.98 330.998 104.468 331.518 104.167Z" fill="#DC6A00"/>
<path d="M323.318 104.121C323.318 104.121 324.542 107.47 327.007 108.89C329.472 110.309 330.917 108.507 330.917 108.507L323.318 104.121Z" fill="#DC6A00"/>
<path d="M165.932 284.372L171.219 287.432V273.806L165.932 270.755V284.372Z" fill="#4399FF"/>
<path d="M171.219 273.824L165.932 270.764L170.216 268.29L175.716 271.367L171.219 273.824Z" fill="#70B6FC"/>
<path d="M191.296 283.539C191.274 282.896 191.091 282.27 190.764 281.716C190.438 281.162 189.978 280.699 189.426 280.368L183.229 276.79L184.215 272.14V271.792C184.219 271.297 184.15 270.805 184.011 270.33C183.824 269.718 183.161 268.264 182.736 268.562L176.251 272.31C175.86 272.421 175.664 272.871 175.664 273.551V284.95C175.704 285.63 175.903 286.292 176.244 286.882C176.585 287.473 177.059 287.975 177.628 288.35L186.476 293.45C187.258 293.9 187.947 293.73 188.244 293.11L191.194 286.752C191.282 286.516 191.317 286.263 191.296 286.012V283.539Z" fill="#A6693B"/>
<path d="M184.785 295.32L187.905 293.492L185.066 289.642L184.785 295.32Z" fill="#A6693B"/>
<path d="M188.321 285.273C188.297 284.631 188.113 284.005 187.786 283.452C187.46 282.898 187.001 282.435 186.451 282.102L180.254 278.533L181.24 273.875V273.535C181.244 273.037 181.175 272.542 181.036 272.064C180.849 271.452 180.186 270.007 179.761 270.296L173.276 274.045C172.885 274.155 172.689 274.614 172.689 275.294V286.65C172.728 287.331 172.926 287.993 173.267 288.583C173.608 289.174 174.083 289.676 174.653 290.05L183.501 295.15C184.283 295.609 184.972 295.439 185.269 294.81L188.219 288.452C188.307 288.216 188.342 287.964 188.321 287.713V285.273Z" fill="#985732"/>
<path d="M279.889 170.296L288.258 175.228C290.858 176.76 291.724 180.109 290.191 182.709V182.709L277.115 175.003L279.889 170.296Z" fill="#F3BE00"/>
<path d="M266.708 163.087L278.924 170.286L276.657 174.132L264.442 166.934L266.708 163.087Z" fill="white" stroke="#F3BE00"/>
<path d="M233.029 149.103C234.431 146.724 237.496 145.932 239.875 147.334L248.644 152.502L248.408 152.902C247.007 155.281 243.941 156.073 241.562 154.671L232.793 149.503L233.029 149.103Z" fill="#FFD600"/>
</g>
<defs>
<linearGradient id="paint0_linear" x1="176.625" y1="178.518" x2="391.857" y2="124.786" gradientUnits="userSpaceOnUse">
<stop/>
<stop offset="0.552083" stop-color="#FF6060"/>
<stop offset="1" stop-color="#FF8585"/>
</linearGradient>
<linearGradient id="paint1_linear" x1="141.613" y1="330.223" x2="148.079" y2="318.972" gradientUnits="userSpaceOnUse">
<stop offset="0.21" stop-color="white" stop-opacity="0"/>
<stop offset="1" stop-color="white" stop-opacity="0.2"/>
</linearGradient>
<clipPath id="clip0">
<rect width="348.56" height="425" fill="white" transform="translate(81 24)"/>
</clipPath>
</defs>
</svg>
